<?xml version="1.0" encoding="UTF-8"?> <svg xmlns="http://www.w3.org/2000/svg" viewBox="0 0 2604.91 1893.13"> <defs> <style>.cls-1{fill:#fff;}.cls-1,.cls-10,.cls-11,.cls-2,.cls-3,.cls-4,.cls-5,.cls-6,.cls-7,.cls-9{fill-rule:evenodd;}.cls-3{fill:#9564e8;}.cls-4{fill:#f9c642;}.cls-5{fill:#fd5d31;}.cls-6,.cls-8{fill:#fe825f;}.cls-7{fill:#be97fe;}.cls-9{fill:#fdab95;}.cls-10{fill:#cfcfcf;}.cls-11{fill:#020202;}</style> </defs> <g id="Слой_2" data-name="Слой 2"> <g id="OBJECTS"> <path class="cls-1" d="M2.24,608.43c.24,26.51,1.77,500.94,3.2,501.16,2.18.33,672.43-.12,676.68-4.38,4.84-4.83-3.9-500.77-8.66-501.26-11.51-1.19-626,4.57-671.22,4.48Z"></path> <path class="cls-2" d="M2.12,1109.85a2.06,2.06,0,0,0,.6,1.49,2.1,2.1,0,0,0,1.49.62c82-.67,565.7-1.29,661.62-3.57,9.86-.24,15.74-.53,16.82-.8a2.13,2.13,0,0,0,1.75-2.1c.14-65.5-.33-442.47-1.52-500a2.19,2.19,0,0,0-2.11-2.06c-1.16-.1-7.52-.17-18.13-.21C557.42,602.81,30,605,2.12,605.62a2.17,2.17,0,0,0-2,2.11C0,608.61,0,613.39,0,621.38c0,79.2,2.31,475.75,2.12,488.47ZM678.76,607.5c-2.76,0-8.67-.13-16.13-.15-103.3-.37-613.57,1.73-658.42,2.39,0,2.25,0,6.44,0,11.64,0,76.85,2.17,452.53,2.13,486.4,87.8-.66,564.32-1.28,659.44-3.55,6.78-.16,12.1-.44,14.5-.59.14-69.64-.32-433-1.47-496.14Z"></path> <path class="cls-2" d="M4.62,652.76c76-.28,511.24-2.87,675.49-1.56a2.08,2.08,0,0,0,0-4.16c-164.27-1.31-599.52,1.28-675.54,1.56a2.08,2.08,0,0,0,0,4.16Z"></path> <polygon class="cls-3" points="106.98 683.15 40.66 683.4 40.74 704.14 107.06 703.89 106.98 683.15 106.98 683.15"></polygon> <polygon class="cls-3" points="311.11 682.65 241.13 682.92 241.21 704.41 311.19 704.15 311.11 682.65 311.11 682.65"></polygon> <polygon class="cls-3" points="263.53 723.05 191.41 723.32 191.49 743.92 263.61 743.66 263.53 723.05 263.53 723.05"></polygon> <polygon class="cls-3" points="126.68 761.99 42.41 762.3 42.49 783.81 126.76 783.49 126.68 761.99 126.68 761.99"></polygon> <polygon class="cls-3" points="177.41 810 115.03 810.24 115.11 830.46 177.48 830.22 177.41 810 177.41 810"></polygon> <polygon class="cls-3" points="209.26 893.78 146.92 894.02 147 914.97 209.34 914.74 209.26 893.78 209.26 893.78"></polygon> <polygon class="cls-3" points="212.49 1022.4 150.93 1022.63 151.01 1044.19 212.58 1043.97 212.49 1022.4 212.49 1022.4"></polygon> <polygon class="cls-3" points="107.23 1064.61 45.67 1064.84 45.76 1086.41 107.31 1086.18 107.23 1064.61 107.23 1064.61"></polygon> <polygon class="cls-3" points="318.56 1058.87 248.8 1059.13 248.88 1079.88 318.64 1079.62 318.56 1058.87 318.56 1058.87"></polygon> <polygon class="cls-3" points="137.85 935.51 89.77 935.69 89.85 956.43 137.92 956.26 137.85 935.51 137.85 935.51"></polygon> <polygon class="cls-3" points="127.57 853.19 99.6 853.3 99.67 873.26 127.65 873.15 127.57 853.19 127.57 853.19"></polygon> <polygon class="cls-4" points="191.66 683.35 113.9 683.35 113.9 703.96 191.66 703.96 191.66 683.35 191.66 683.35"></polygon> <polygon class="cls-4" points="201.3 853.66 139.94 853.66 139.94 872.97 201.3 872.97 201.3 853.66 201.3 853.66"></polygon> <polygon class="cls-4" points="278.7 981.09 205.55 981.09 205.55 1001.73 278.7 1001.73 278.7 981.09 278.7 981.09"></polygon> <polygon class="cls-4" points="457.41 1056.75 383.02 1056.75 383.02 1077.93 457.41 1077.93 457.41 1056.75 457.41 1056.75"></polygon> <polygon class="cls-4" points="406.35 811.42 290.17 811.42 290.17 832.03 406.35 832.03 406.35 811.42 406.35 811.42"></polygon> <polygon class="cls-5" points="453.79 683.49 339.65 683.49 339.65 704.2 453.79 704.2 453.79 683.49 453.79 683.49"></polygon> <polygon class="cls-5" points="246.11 762.44 174.64 762.44 174.64 783.12 246.11 783.12 246.11 762.44 246.11 762.44"></polygon> <polygon class="cls-5" points="261.15 809.85 188.41 809.85 188.41 829.66 261.15 829.66 261.15 809.85 261.15 809.85"></polygon> <polygon class="cls-5" points="296.61 853.83 223.32 853.83 223.32 873.21 296.61 873.21 296.61 853.83 296.61 853.83"></polygon> <polygon class="cls-5" points="220.88 935.39 147.53 935.39 147.53 956.15 220.88 956.15 220.88 935.39 220.88 935.39"></polygon> <polygon class="cls-5" points="155.54 982.63 74.67 982.63 74.67 1002.35 155.54 1002.35 155.54 982.63 155.54 982.63"></polygon> <polygon class="cls-5" points="177.21 1064.62 119.44 1064.62 119.44 1084.12 177.21 1084.12 177.21 1064.62 177.21 1064.62"></polygon> <polygon class="cls-5" points="156.72 723.27 41.29 723.27 41.29 744.03 156.72 744.03 156.72 723.27 156.72 723.27"></polygon> <path class="cls-3" d="M205.55,682.71a11.93,11.93,0,0,0,1.31,21.68,2.08,2.08,0,0,0,1.47-3.9,7.79,7.79,0,0,1-.72-14.16,2.08,2.08,0,1,0-2.06-3.62Z"></path> <path class="cls-3" d="M214.18,852.66a11.92,11.92,0,0,0,1.3,21.67,2.08,2.08,0,1,0,1.47-3.89,7.79,7.79,0,0,1-.72-14.16,2.08,2.08,0,0,0-2-3.62Z"></path> <path class="cls-3" d="M242.25,933.34c-9.41,5.57-7.71,18.87,1.31,22.43a2.08,2.08,0,0,0,1.53-3.87c-6-2.38-7-11.26-.72-15a2.08,2.08,0,1,0-2.12-3.58Z"></path> <path class="cls-3" d="M217.67,686.42c6,3.53,5.08,11.94-.68,14.19a2.08,2.08,0,0,0,1.51,3.88c8.8-3.44,10.45-16.27,1.28-21.65a2.08,2.08,0,1,0-2.11,3.58Z"></path> <path class="cls-3" d="M278.79,937c6,3.53,5.07,11.94-.69,14.19a2.08,2.08,0,0,0,1.52,3.88c8.8-3.44,10.45-16.28,1.27-21.66a2.08,2.08,0,1,0-2.1,3.59Z"></path> <path class="cls-3" d="M307.35,856.48c6,3.53,5.07,11.94-.69,14.2a2.08,2.08,0,0,0,1.51,3.87c8.8-3.44,10.45-16.28,1.28-21.66a2.08,2.08,0,0,0-2.1,3.59Z"></path> <path class="cls-4" d="M283.48,722.72c-5.23,2.56-7.38,7-7.06,11.2s3.12,8.29,8.16,10.26a2.08,2.08,0,1,0,1.52-3.87c-3.35-1.31-5.32-3.93-5.53-6.7s1.35-5.49,4.74-7.15a2.08,2.08,0,0,0-1.83-3.74Z"></path> <path class="cls-4" d="M264.33,763.06c-5.23,2.55-7.39,7-7.06,11.2s3.12,8.29,8.16,10.26a2.08,2.08,0,0,0,1.52-3.88c-3.35-1.3-5.32-3.92-5.53-6.69s1.35-5.5,4.74-7.15a2.08,2.08,0,0,0-1.83-3.74Z"></path> <path class="cls-4" d="M322.81,725.61a7.69,7.69,0,0,1-.67,13.93,2.08,2.08,0,1,0,1.68,3.8c9-4,10.22-16.28,1-21.37a2.08,2.08,0,1,0-2,3.64Z"></path> <path class="cls-4" d="M339.17,1062.18a7.76,7.76,0,0,1-.65,14,2.08,2.08,0,1,0,1.7,3.79,11.87,11.87,0,0,0,1-21.36,2.08,2.08,0,1,0-2,3.62Z"></path> <path class="cls-5" d="M212.7,1061c-4.61,3.16-6.77,7.4-6.83,11.54s2,8.32,6.21,11.29a2.08,2.08,0,1,0,2.41-3.39c-2.93-2.09-4.5-4.93-4.46-7.85s1.73-5.9,5-8.16a2.08,2.08,0,1,0-2.36-3.43Z"></path> <path class="cls-5" d="M222.5,1064.32c3.29,2.26,5,5.21,5,8.16s-1.53,5.77-4.46,7.85a2.08,2.08,0,0,0,2.41,3.39c4.19-3,6.27-7.12,6.21-11.29s-2.23-8.38-6.83-11.54a2.08,2.08,0,1,0-2.36,3.43Z"></path> <path class="cls-3" d="M164.58,733.56c2.1-.09,6,0,7.54,0a2.08,2.08,0,0,0,0-4.16c-1.58,0-5.58-.12-7.73,0a2.08,2.08,0,0,0,.19,4.15Z"></path> <path class="cls-3" d="M354,1067.66c2.1-.09,6,0,7.54,0a2.08,2.08,0,1,0,0-4.16c-1.57,0-5.57-.12-7.73,0a2.08,2.08,0,0,0,.19,4.16Z"></path> <path class="cls-3" d="M164.8,741.41c2.57,0,4.84,0,7.62,0a2.08,2.08,0,0,0,0-4.16c-2.77,0-5,0-7.58,0a2.1,2.1,0,0,0-2.09,2.08,2.08,2.08,0,0,0,2.08,2.08Z"></path> <path class="cls-3" d="M354.19,1075.51c2.56,0,4.83,0,7.61,0a2.08,2.08,0,1,0,0-4.16c-2.77,0-5,0-7.58,0a2.08,2.08,0,0,0,0,4.16Z"></path> <path class="cls-3" d="M183.77,735.84c-1.27-1.14-3.34-2.94-5.4-4.48a2.08,2.08,0,0,1,2.5-3.33,53.79,53.79,0,0,1,7.63,6.67,2.54,2.54,0,0,1-.64,3.21,40.43,40.43,0,0,1-7.65,4.73,2.08,2.08,0,0,1-1.81-3.75,46.67,46.67,0,0,0,5.37-3Z"></path> <path class="cls-3" d="M373.16,1069.94c-1.28-1.14-3.35-3-5.4-4.48a2.08,2.08,0,1,1,2.49-3.33,54.17,54.17,0,0,1,7.64,6.67,2.54,2.54,0,0,1-.65,3.21,40.82,40.82,0,0,1-7.64,4.73,2.08,2.08,0,0,1-1.82-3.75,48.35,48.35,0,0,0,5.38-3Z"></path> <path class="cls-5" d="M427.54,822.23a17.56,17.56,0,0,0-1.38-1.25c-2.55-2-6.56-4.64-9.65-6.61a2.08,2.08,0,0,1,2.23-3.51c4.14,2.63,9.83,6.38,11.94,8.58a4.27,4.27,0,0,1,1.4,2.71,5.34,5.34,0,0,1-2.17,3.61c-2.22,1.91-6.57,4.42-11,6.81a2.08,2.08,0,0,1-2-3.67,85.15,85.15,0,0,0,9.36-5.56,13.61,13.61,0,0,0,1.27-1.11Z"></path> <path class="cls-5" d="M323.07,989.67c-.37-.37-.89-.86-1.38-1.26-2.54-2-6.55-4.64-9.65-6.6a2.08,2.08,0,1,1,2.24-3.51c4.13,2.63,9.81,6.38,11.94,8.58a4.35,4.35,0,0,1,1.39,2.71,5.3,5.3,0,0,1-2.17,3.6c-2.22,1.92-6.58,4.42-11,6.82a2.08,2.08,0,1,1-2-3.67,84.11,84.11,0,0,0,9.36-5.57,12.27,12.27,0,0,0,1.27-1.1Z"></path> <path class="cls-5" d="M78,818.22a16.77,16.77,0,0,0,1.6,1.14,114.8,114.8,0,0,0,11.94,5.9,2.08,2.08,0,0,1-1.69,3.8c-5.6-2.49-11.09-5.1-13.87-7.1a8,8,0,0,1-2.24-2.21,3.13,3.13,0,0,1-.47-1.62A4.37,4.37,0,0,1,75,815.22c2.66-2.29,9.82-6.21,15-9A2.08,2.08,0,0,1,92,810c-3.93,2.07-9,4.82-12.28,7-.6.41-1.24.9-1.72,1.3Z"></path> <path class="cls-5" d="M135.86,1021.27c-3.42,8.36-7.29,17-10.07,23.6a2.08,2.08,0,0,0,3.83,1.61c2.79-6.61,6.66-15.26,10.09-23.63a2.08,2.08,0,1,0-3.85-1.58Z"></path> <path class="cls-5" d="M135,893.13c-2.31,6.65-5,14.26-7.92,21.28a2.08,2.08,0,0,0,3.85,1.59c2.91-7.11,5.67-14.79,8-21.51a2.08,2.08,0,0,0-3.93-1.36Z"></path> <path class="cls-4" d="M105.78,807.43c-4.28,10.49-4.56,11.2-8.76,21.78a2.08,2.08,0,1,0,3.87,1.54c4.19-10.56,4.47-11.28,8.74-21.76a2.08,2.08,0,1,0-3.85-1.56Z"></path> <path class="cls-4" d="M107.67,1034.43a9.25,9.25,0,0,0,1,.52c2.3,1,6.19,2.25,11.28,4.82a2.08,2.08,0,0,1-1.87,3.71c-5.94-3-10.26-4.16-12.3-5.33-1.74-1-2.38-2.19-2.37-3.49a5.31,5.31,0,0,1,1.89-3.74c1.95-1.86,6-4.05,11.9-7.88a2.08,2.08,0,1,1,2.27,3.48c-4.83,3.16-8.42,5.13-10.51,6.75a6.65,6.65,0,0,0-1.08,1l-.17.19Z"></path> <path class="cls-4" d="M253.91,1032.42a9,9,0,0,0,1,.52c2.3,1,6.2,2.24,11.29,4.82a2.08,2.08,0,1,1-1.88,3.71c-5.94-3-10.26-4.16-12.3-5.33-1.74-1-2.38-2.19-2.36-3.49a5.25,5.25,0,0,1,1.89-3.74c1.94-1.86,6-4.05,11.89-7.88a2.08,2.08,0,1,1,2.27,3.48c-4.83,3.16-8.41,5.13-10.51,6.75a7.67,7.67,0,0,0-1.08,1l-.16.19Z"></path> <path class="cls-4" d="M239.37,1032.29l-.1-.1a7.77,7.77,0,0,0-1.18-1c-2.28-1.63-6.16-3.6-11.41-6.76a2.08,2.08,0,0,1,2.15-3.57c6.35,3.84,10.76,6,12.86,7.87a5.18,5.18,0,0,1,2.05,3.79c0,1.31-.66,2.54-2.53,3.53-2.21,1.18-6.88,2.33-13.31,5.33a2.08,2.08,0,1,1-1.76-3.77c5.51-2.57,9.73-3.79,12.21-4.82a8.07,8.07,0,0,0,1-.51Z"></path> <path class="cls-4" d="M234.34,906.27a2.29,2.29,0,0,0-.26-.32,8.74,8.74,0,0,0-1.19-1.06c-2.28-1.73-6.16-3.84-11.4-7.21a2.09,2.09,0,0,1,2.26-3.51c6.34,4.1,10.75,6.42,12.84,8.41a5.42,5.42,0,0,1,2,3.9c0,1.34-.66,2.58-2.48,3.61-2.21,1.25-6.88,2.49-13.31,5.69a2.08,2.08,0,1,1-1.85-3.72c5.5-2.75,9.72-4,12.21-5.15a10.83,10.83,0,0,0,1.17-.64Z"></path> <path class="cls-3" d="M292.14,982.44c-.2-1.6,1.28-2.12,2.64-2.1a4.63,4.63,0,0,1,2.52.75,1.83,1.83,0,0,1,.86,1.44c.09,3.62-2.22,4.57-3.93,6a7.71,7.71,0,0,0-3.37,6.68,2.08,2.08,0,1,0,4.16-.06c0-2.34,1.51-3.16,2.88-4.2,2.31-1.76,4.54-3.74,4.42-8.48-.09-3.79-3.75-6.17-7.46-6.24a7.15,7.15,0,0,0-5.63,2.27A5.67,5.67,0,0,0,288,983a2.08,2.08,0,1,0,4.13-.52Z"></path> <path class="cls-3" d="M292.25,1000.91a2.1,2.1,0,0,1,2.1.19,2.06,2.06,0,0,1,.83,2.1.86.86,0,0,1,0,.29,2.21,2.21,0,0,1-.53.85c-.09.09-.39.54-1.56.62a2.08,2.08,0,0,1-.81-4.05Zm-.95,1c0,.09-.07.18-.1.27-.22.65.63,2.23.63,2.23a5.36,5.36,0,0,1-.53-2.5Zm1.38-1.1h0Z"></path> <path class="cls-3" d="M108.1,903.94c3.11,1.8,9.12,5.27,12.19,7a2.08,2.08,0,1,1-2.05,3.62c-4.42-2.5-13-7.17-14.71-8.52a2.57,2.57,0,0,1-1.06-1.94,2.6,2.6,0,0,1,1-1.9c1.71-1.48,10.48-7.22,14.25-10.05a2.08,2.08,0,1,1,2.5,3.32c-2.93,2.2-8.91,6.17-12.14,8.46Z"></path> <path class="cls-3" d="M187.56,1072.43c3.11,1.81,9.12,5.28,12.19,7a2.08,2.08,0,0,1-2.05,3.63c-4.42-2.51-13-7.18-14.71-8.53a2.55,2.55,0,0,1-1.06-1.93,2.6,2.6,0,0,1,1-1.91c1.71-1.47,10.48-7.21,14.25-10a2.08,2.08,0,1,1,2.5,3.33c-2.92,2.2-8.91,6.16-12.14,8.45Z"></path> <path class="cls-3" d="M43.41,806.09c-.39,38,1.67,202.17,1,243.95a2.08,2.08,0,1,0,4.16.07c.72-41.78-1.35-205.93-1-244a2.09,2.09,0,0,0-4.17,0Z"></path> <path class="cls-3" d="M75.25,1014.31c0,14.74.09,23.69-.11,34.27a2.08,2.08,0,0,0,4.16.07c.2-10.59.08-19.56.11-34.32a2.08,2.08,0,0,0-4.16,0Z"></path> <path class="cls-3" d="M70.53,838.7c.68,21.1.5,66.17.5,84.68a2.09,2.09,0,0,0,4.17,0c0-18.54.17-63.68-.51-84.82a2.08,2.08,0,1,0-4.16.14Z"></path> <path class="cls-3" d="M134,764.68c.07,7.16.22,11.71.14,16.82a2.07,2.07,0,0,0,2,2.12,2.09,2.09,0,0,0,2.12-2c.08-5.14-.07-9.73-.14-16.93a2.06,2.06,0,0,0-2.09-2.06,2.09,2.09,0,0,0-2.07,2.1Z"></path> <path class="cls-3" d="M165.79,982.15c.06,7.16.22,11.71.13,16.82a2.08,2.08,0,1,0,4.16.07c.09-5.14-.07-9.73-.13-16.93a2.08,2.08,0,1,0-4.16,0Z"></path> <path class="cls-3" d="M142.73,764.72c0,5.58,0,12.9,0,16.53a2.08,2.08,0,0,0,4.16,0c0-3.63,0-11,0-16.54a2.08,2.08,0,1,0-4.16,0Z"></path> <path class="cls-3" d="M174.57,982.19c0,5.59,0,12.9,0,16.53a2.09,2.09,0,0,0,4.17,0c0-3.63,0-11,0-16.54a2.08,2.08,0,1,0-4.16,0Z"></path> <path class="cls-3" d="M153.66,766.25c2,0,3.71,0,6,0a2.89,2.89,0,1,0,.08-5.77c-2.37,0-4.16-.09-6.19,0a2.89,2.89,0,0,0,.1,5.78Z"></path> <path class="cls-3" d="M153.65,765.44c2,0,3.73,0,6,0a2.08,2.08,0,1,0,.06-4.16c-2.36,0-4.14-.08-6.17,0a2.08,2.08,0,0,0,.08,4.16Z"></path> <path class="cls-3" d="M252.22,937.31c1.81,0,3.39,0,5.48,0a2.08,2.08,0,0,0,0-4.16c-2.15,0-3.77,0-5.62,0a2.08,2.08,0,0,0,.1,4.15Z"></path> <path class="cls-3" d="M265.88,937.55c1.8,0,3.39,0,5.48,0a2.08,2.08,0,0,0,0-4.16c-2.15,0-3.78,0-5.62,0a2.08,2.08,0,1,0,.1,4.16Z"></path> <path class="cls-3" d="M185.88,983c2.27.05,4.26.05,6.9.07a2.08,2.08,0,1,0,0-4.16c-2.61,0-4.58,0-6.83-.07a2.08,2.08,0,0,0-.09,4.16Z"></path> <path class="cls-4" d="M292.51,725.54c2.6.08,3.87,0,5.9.07a2.08,2.08,0,0,0,.09-4.16c-2,0-3.27,0-5.86-.07a2.08,2.08,0,0,0-.13,4.16Z"></path> <path class="cls-4" d="M308.18,725.72c1.89,0,3.67.1,5.73,0a2.08,2.08,0,0,0-.12-4.16c-2,.06-3.7,0-5.53,0a2.08,2.08,0,1,0-.08,4.16Z"></path> <path class="cls-4" d="M327.56,1060.81h4.67a2.08,2.08,0,0,0,0-4.16h-4.63a2.08,2.08,0,0,0,0,4.16Z"></path> <path class="cls-3" d="M76.55,950l-3.7-1.2a2,2,0,0,1-1.35-2.37,2,2,0,0,1,2.08-1.69,2.66,2.66,0,0,0,1.63-1.06c.46-.52.93-1.07.92-1.53a21.44,21.44,0,0,1,.27-5.4,6.68,6.68,0,0,1,2.38-3.91,7.69,7.69,0,0,1,5.92-1.18,2.08,2.08,0,1,1-.55,4.12,3.86,3.86,0,0,0-2.85.38,3.07,3.07,0,0,0-1,2.18,22.13,22.13,0,0,0-.06,3.7,6.92,6.92,0,0,1-1.8,4.21,5.58,5.58,0,0,1,.86.46,2.93,2.93,0,0,1,1.4,2.33c0,1.2-.19,2.58-.3,3.9a9.51,9.51,0,0,0,0,1.68,1.68,1.68,0,0,0,.41,1.14,3.66,3.66,0,0,0,2.52.55,2.08,2.08,0,0,1,0,4.16c-2.94,0-4.64-.83-5.66-1.94A6.4,6.4,0,0,1,76.23,954c0-1.29.25-2.71.32-4Z"></path> <path class="cls-6" d="M304.08,945.76a6.6,6.6,0,0,1-.86-.46,2.91,2.91,0,0,1-1.41-2.33c0-1.2.18-2.57.29-3.9a10.54,10.54,0,0,0,0-1.68,1.68,1.68,0,0,0-.41-1.13,3.61,3.61,0,0,0-2.52-.55,2.08,2.08,0,1,1-.05-4.16c2.95,0,4.65.82,5.67,1.92a6.47,6.47,0,0,1,1.5,4.53c0,1.29-.24,2.71-.32,4,1,.33,3.45,1.1,3.71,1.2a2,2,0,0,1,1.36,2.36,2,2,0,0,1-2.07,1.7,2.57,2.57,0,0,0-1.62,1.07c-.48.52-.93,1.07-.91,1.52a22.37,22.37,0,0,1-.26,5.4,6.66,6.66,0,0,1-2.37,3.92c-1.26,1-3.12,1.57-5.92,1.21a2.08,2.08,0,0,1,.54-4.13,3.85,3.85,0,0,0,2.86-.38,3.12,3.12,0,0,0,.94-2.19,21,21,0,0,0,0-3.7,7,7,0,0,1,1.79-4.21Z"></path> <path class="cls-2" d="M587.76,604.69c-.07-1.74,7.56-.73,24.23-.91,4.74,0,6.81,110.89,8.38,162.78,1.78,59-.11,121.6,12.43,211.57,3.51,25.25,24.36,62.22,48.78,79.81.87.63,1.06,32.55.26,32.45-54.48-6.8-81.5-88.7-83-121.14-5-109.09-7.62-274.61-11.1-364.56Z"></path> <path class="cls-2" d="M2440.53,381.62c-19.11-2.94-32.5-22.58-35.58-41.74-2.69-16.75,2.56-32.86,18-37.38,8.38-2.46,14.85-1.5,19.7,1.73s8.05,8.72,9.85,15.77c3.9,15.31.94,38.06-6,57.82a33.31,33.31,0,0,0,10.47-2.1c15.84-5.79,34-18.51,47.48-31.21,8.86-8.35,15.71-16.65,18.39-23a2.08,2.08,0,1,1,3.83,1.62c-2.84,6.68-10,15.54-19.37,24.37-13.87,13.07-32.6,26.13-48.91,32.09a36.82,36.82,0,0,1-13.44,2.37,116.51,116.51,0,0,1-5.64,12.33c-15,28-53.23,82.46-92.9,108.5-21.5,14.11-43.42,19.92-62.47,9.49-29.39,46-61.22,87.5-74.92,103.4a2.08,2.08,0,1,1-3.16-2.72c13.62-15.81,45.32-57.07,74.56-102.82a56.45,56.45,0,0,1-11-9.75c-7.12-8.08-12-22.21-14.28-38.91-3.32-24.62-1-54.87,7.8-79,10-27.47,28.42-46.89,56-42.24,26.55,4.49,30.71,27.84,21.58,59.82-9,31.41-30.66,71.32-54.27,108.63,17.67,9.42,38,3.66,57.92-9.41,39.1-25.66,76.75-79.34,91.51-107a110.9,110.9,0,0,0,5-10.75Zm-158,125c23.43-37,44.93-76.53,53.81-107.66,8.26-28.95,5.76-50.51-18.28-54.57-25.45-4.31-42.08,14.16-51.34,39.56-8.57,23.49-10.82,53-7.58,77,2.12,15.73,6.56,29.1,13.27,36.7a52,52,0,0,0,10.12,9Zm159.5-129c7-19.21,10.16-41.61,6.34-56.59-1.51-5.93-4.09-10.65-8.12-13.34s-9.33-3.23-16.22-1.2c-13.36,3.93-17.34,18.18-15,32.73,2.85,17.73,15.19,36.27,33,38.4Z"></path> <path class="cls-7" d="M1893.49,1510.21c.46-2.9,233.67.84,234.09-3.28,3-29.48-2.55-184.51,1.26-195.87,1.27-3.8,44.13,34.14,58.4,37.37,4.25,1,106-153.79,110.06-153.56,3.89.21,2.48,157.27,7.47,158.54,44.61,11.39,288.27,60.77,294.51,68.59,4.41,5.52-294,83-295,88.62-.12.7,149.48,163.86,149.05,164.64-2.23,4.15-195.85-63.72-199.19-59.69-10.16,12.27-61.07,183.46-67.83,188.7-1.32,1-71.39-148-79.77-157-2.8-3-94.53,46.15-159.1,82.07-6.23,3.47,95.35-140.22,98.46-150.56,3.6-11.94-128.55-54.5-152.38-68.59Z"></path> <path class="cls-2" d="M2188.05,1345.33c.72-.8,4.35-5,8-10.09,19.37-27,63.72-96.79,86.7-127.92,5.14-7,9.25-12,11.8-14.34a8.7,8.7,0,0,1,2.51-1.7,3,3,0,0,1,1.62-.15,2.87,2.87,0,0,1,2,2.34c.52,2.06.88,7.84,1.1,16.07.85,31.94,0,101.84,2.09,130.08a83.16,83.16,0,0,0,1,8.74,17.73,17.73,0,0,0,.52,1.93c.51.21,1.46.49,2.81.89,4.56,1.34,13.08,3.48,24.43,6.18,65.09,15.52,222.84,49.73,261.86,59.9a80,80,0,0,1,8.61,2.54,3.31,3.31,0,0,1,1.36,1,2,2,0,0,1,.32,1.82,2.06,2.06,0,0,1-.89,1.21,68.81,68.81,0,0,1-8.54,2.89c-37.95,11.41-200.16,55.73-264.3,76.15-11.25,3.59-20.65,7.31-24,8.66,1.81,2.29,6.08,7.61,11.34,13.54,32.17,36.24,115.63,124.35,135,145.31,2.55,2.74,4,4.4,4.24,4.7a2,2,0,0,1,.28,1.92,1.93,1.93,0,0,1-2,1.39c-2.38,0-9.21-1.62-19-4.41-38-10.85-122-39.18-161.38-51.16-9.38-2.86-17.59-4.83-19.55-5.3a14.7,14.7,0,0,0-.89,1.36,94.43,94.43,0,0,0-4.11,8.9c-11.09,26.74-32.84,93.47-47.65,137.3-6.38,18.89-11.48,33.55-13.91,39a15,15,0,0,1-1.21,2.32,2.94,2.94,0,0,1-1,.94,2.28,2.28,0,0,1-2.4-.13c-.64-.4-1.87-1.9-3.38-4.5-11.18-19.24-48.8-105.24-67.24-140.15a131,131,0,0,0-6.72-11.65,19.28,19.28,0,0,0-1.7-2.08,4.91,4.91,0,0,0-.62,0,17.24,17.24,0,0,0-2.37.59,113.38,113.38,0,0,0-13.1,5.4c-37.45,17.41-121.15,66-141.37,77.08a40.1,40.1,0,0,1-4.94,2.45,2,2,0,0,1-2.25-.87,2.07,2.07,0,0,1-.31-1.68,27.67,27.67,0,0,1,2.83-5c12.5-19.14,67.65-96,90.73-132.15,5-7.86,8.53-13.69,9.6-16.46a18.9,18.9,0,0,0-1.78-1.31c-2.35-1.48-6-3.43-10.69-5.72-35.2-17.29-126.32-53.72-139.27-58.76a2.08,2.08,0,0,1,1.5-3.88c13,5.06,104.32,41.57,139.6,58.9,7.37,3.62,12.37,6.5,13.93,8.09a3,3,0,0,1,1,2.88c-.61,2.46-4.44,9.18-10.39,18.5-22.35,34.94-74.71,108.1-89.4,130.15,23.47-13,103.15-59.14,139.44-76,6.73-3.13,12-5.26,15.21-6a7.8,7.8,0,0,1,4-.18,6.4,6.4,0,0,1,2.55,2.1,82.07,82.07,0,0,1,6.65,10.85c15.41,28.43,47,99.81,62.66,131.37,2.87,5.76,5.19,10.19,6.77,12.73.26-.58.55-1.24.82-1.91,2.66-6.66,7.23-19.85,12.77-36.25,14.84-43.91,36.63-110.78,47.75-137.56a78.41,78.41,0,0,1,4.93-10.35,7,7,0,0,1,2-2.22,4.43,4.43,0,0,1,2.69-.25c2.87.43,10,2.43,20,5.47,39.34,12,123.36,40.3,161.32,51.14,5,1.43,9.18,2.56,12.31,3.3l-.07-.08c-21.86-23.59-124.84-132.25-144.59-156.36a32.65,32.65,0,0,1-3.44-4.74,2.6,2.6,0,0,1-.24-1.75,2.9,2.9,0,0,1,1.12-1.59c.95-.74,3.48-1.92,7.39-3.38,40.68-15.27,240.76-69.81,283.48-82.64l2.17-.67c-5.3-1.45-14.1-3.59-25.39-6.26-60.38-14.24-191.35-42.78-244.48-55.62-13.66-3.31-22.29-5.69-23.56-6.49a4.8,4.8,0,0,1-1.69-2.74,63.93,63.93,0,0,1-1.46-11c-2.09-28.28-1.24-98.28-2.1-130.28-.16-5.88-.37-10.45-.67-13.22-.24.21-.48.44-.7.67a140.55,140.55,0,0,0-10.19,12.68c-23,31.13-67.3,100.9-86.66,127.88-4,5.59-7,9.39-8.56,10.76a4,4,0,0,1-2,1,8.28,8.28,0,0,1-3.46-.52,56.9,56.9,0,0,1-10.52-5.49c-13.78-8.57-34.58-24.55-46.9-32.55a2.08,2.08,0,1,1,2.26-3.49c12.31,8,33.08,23.95,46.84,32.5a63,63,0,0,0,8.66,4.72,8.64,8.64,0,0,0,2.25.7Z"></path> <path class="cls-4" d="M697.64,149.56c67.09,0,121.57,52.38,121.57,116.89s-54.48,116.9-121.57,116.9S576.06,331,576.06,266.45s54.48-116.89,121.58-116.89Z"></path> <path d="M697.64,385.6c-68.28,0-123.83-53.45-123.83-119.15s55.55-119.14,123.83-119.14,123.82,53.44,123.82,119.14S765.91,385.6,697.64,385.6Zm0-233.79c-65.8,0-119.33,51.43-119.33,114.64S631.84,381.1,697.64,381.1,817,329.67,817,266.45,763.43,151.81,697.64,151.81Z"></path> <path d="M699.15,316.33c-28.12,0-51-21.54-51-48s22.88-48,51-48,51,21.54,51,48S727.27,316.33,699.15,316.33Zm0-91.54c-25.64,0-46.5,19.53-46.5,43.52s20.86,43.52,46.5,43.52,46.5-19.52,46.5-43.52S724.79,224.79,699.15,224.79Z"></path> <path class="cls-2" d="M697.09,202.05c-.14,15.66.28,28.71-.46,42.76a2.08,2.08,0,1,0,4.16.22c.74-14.11.32-27.21.46-42.94a2.08,2.08,0,0,0-4.16,0Z"></path> <path class="cls-4" d="M2244.23,710c1.4,45.07.65,273.39-1.27,324-.42,11.16,117.16,6.61,142.31,5.48,29.58-1.33,183.52,4.44,183.52-1.94,0-38.36,1-152.16.3-181.34-.41-17.74,1.35-128.52,1.32-145.21,0-5.19-250.81-1-326.18-1Z"></path> <path d="M2407.15,1016.73q-5.85,0-11.68-.49a2.25,2.25,0,0,1-2-1.75l-4.38-19.9a120.58,120.58,0,0,1-22.57-5.69l-13.34,15.42a2.23,2.23,0,0,1-2.6.59,140.51,140.51,0,0,1-23.83-13.28,2.25,2.25,0,0,1-.86-2.53l6.17-19.42a120.88,120.88,0,0,1-16.68-16.18l-19.29,6.7a2.23,2.23,0,0,1-2.55-.79,141.87,141.87,0,0,1-14-23.38,2.26,2.26,0,0,1,.52-2.63l15.08-13.74a120.09,120.09,0,0,1-6.33-22.34l-20.07-3.81a2.25,2.25,0,0,1-1.81-2,140.7,140.7,0,0,1-.38-27.22,2.24,2.24,0,0,1,1.76-2l19.95-4.38a120.1,120.1,0,0,1,5.7-22.5l-15.46-13.31a2.25,2.25,0,0,1-.59-2.61,141,141,0,0,1,13.32-23.77,2.23,2.23,0,0,1,2.52-.86l19.48,6.15a120.32,120.32,0,0,1,16.22-16.64l-6.72-19.24a2.24,2.24,0,0,1,.79-2.55,141.64,141.64,0,0,1,23.45-14,2.25,2.25,0,0,1,2.61.52l13.78,15.05a121.15,121.15,0,0,1,22.39-6.33l3.83-20a2.25,2.25,0,0,1,2-1.81,141.39,141.39,0,0,1,27.29-.39,2.25,2.25,0,0,1,2,1.76l4.39,19.9a121,121,0,0,1,22.55,5.7l13.35-15.43a2.25,2.25,0,0,1,2.61-.59,141.89,141.89,0,0,1,23.82,13.28,2.25,2.25,0,0,1,.86,2.53l-6.17,19.42a120.88,120.88,0,0,1,16.68,16.18l19.29-6.7a2.26,2.26,0,0,1,2.55.79,141.35,141.35,0,0,1,14,23.39,2.25,2.25,0,0,1-.52,2.62l-15.07,13.74a120.21,120.21,0,0,1,6.33,22.33l20.06,3.83a2.25,2.25,0,0,1,1.82,2,139.91,139.91,0,0,1,.38,27.22,2.24,2.24,0,0,1-1.76,2L2526,894a119.71,119.71,0,0,1-5.7,22.5l15.45,13.32a2.25,2.25,0,0,1,.6,2.6,141.14,141.14,0,0,1-13.31,23.77,2.27,2.27,0,0,1-2.53.87l-19.48-6.17a119.76,119.76,0,0,1-16.21,16.65l6.71,19.24a2.27,2.27,0,0,1-.8,2.56,141.51,141.51,0,0,1-23.44,13.94,2.23,2.23,0,0,1-2.61-.52l-13.78-15a120.37,120.37,0,0,1-22.39,6.33l-3.83,20a2.24,2.24,0,0,1-2,1.81A140.4,140.4,0,0,1,2407.15,1016.73Zm-9.65-4.84a137.34,137.34,0,0,0,23.12-.32l3.8-19.91a2.25,2.25,0,0,1,1.84-1.79,115.63,115.63,0,0,0,24.45-6.91,2.25,2.25,0,0,1,2.5.57l13.7,15a137,137,0,0,0,19.86-11.81l-6.68-19.13a2.25,2.25,0,0,1,.7-2.48,115.71,115.71,0,0,0,17.71-18.17,2.26,2.26,0,0,1,2.45-.76l19.37,6.12a137.59,137.59,0,0,0,11.27-20.13l-15.37-13.24a2.24,2.24,0,0,1-.64-2.49,115.33,115.33,0,0,0,6.23-24.57,2.26,2.26,0,0,1,1.75-1.89l19.83-4.36a135.49,135.49,0,0,0-.32-23.05l-20-3.8a2.26,2.26,0,0,1-1.8-1.84,115.18,115.18,0,0,0-6.91-24.38A2.25,2.25,0,0,1,2515,830l15-13.67a136.47,136.47,0,0,0-11.83-19.8L2499,803.19a2.23,2.23,0,0,1-2.47-.69,115.77,115.77,0,0,0-18.22-17.67,2.25,2.25,0,0,1-.76-2.46l6.14-19.31a139.12,139.12,0,0,0-20.18-11.25l-13.28,15.34a2.24,2.24,0,0,1-2.49.64,116.74,116.74,0,0,0-24.63-6.22,2.24,2.24,0,0,1-1.88-1.74L2416.81,740a137.18,137.18,0,0,0-23.11.33l-3.82,19.9a2.23,2.23,0,0,1-1.84,1.79A116.3,116.3,0,0,0,2363.6,769a2.24,2.24,0,0,1-2.5-.57l-13.7-15a137.68,137.68,0,0,0-19.86,11.81l6.68,19.13a2.25,2.25,0,0,1-.7,2.48A116.61,116.61,0,0,0,2315.81,805a2.25,2.25,0,0,1-2.45.76L2294,799.67a136.51,136.51,0,0,0-11.28,20.13L2298.09,833a2.27,2.27,0,0,1,.64,2.5,115.63,115.63,0,0,0-6.23,24.57,2.25,2.25,0,0,1-1.75,1.89l-19.84,4.36a136.53,136.53,0,0,0,.33,23l20,3.79A2.25,2.25,0,0,1,2293,895a115.74,115.74,0,0,0,6.93,24.39,2.25,2.25,0,0,1-.57,2.51l-15,13.67a136,136,0,0,0,11.84,19.8l19.18-6.66a2.25,2.25,0,0,1,2.48.69,115.27,115.27,0,0,0,18.21,17.67,2.25,2.25,0,0,1,.76,2.46l-6.13,19.31a136.64,136.64,0,0,0,20.18,11.25l13.27-15.34a2.24,2.24,0,0,1,2.48-.64,116.07,116.07,0,0,0,24.64,6.22,2.26,2.26,0,0,1,1.89,1.74Zm9.64-72.35a63.72,63.72,0,0,1-63.7-62.68,63.7,63.7,0,0,1,62.82-64.47h0a63.58,63.58,0,1,1,1.79,127.15Zm-.81-122.65a59.08,59.08,0,0,0,.81,118.15h.85a59.08,59.08,0,0,0-.8-118.15Zm0-2.25h0Z"></path> <path d="M2569.8,1042H2242.36a2.25,2.25,0,0,1-2.25-2.25V709.2a2.25,2.25,0,0,1,2.25-2.25H2569.8a2.25,2.25,0,0,1,2.25,2.25v330.56A2.25,2.25,0,0,1,2569.8,1042Zm-325.19-4.5h322.94V711.45H2244.61Z"></path> <path class="cls-5" d="M2235.26,1.65c-12.21-.56-26.79-.77-35.13-.57-27.07.63-52.68-1.77-79.69.23-12.16.9-30.49,1.86-39.41,11.5-10,10.79-7.12,64.27-5.77,84.63,1,15.66-4.3,66,5.09,77.14,10.25,12.2,40.57,10.28,54.19,9.68,31.37-1.38,60.66.68,92.07-.11,16.92-.44,39.57-.39,56.07-4.77,18.4-4.89,13.18-62.57,13.94-77.53.9-17.87,1.11-62.74-5.62-89.17-4.52-17.77-36.79-10.16-55.74-11Z"></path> <path class="cls-2" d="M2119,.53c-9.7.27-17.71.65-24.16,1.84-6.87,1.26-12,3.47-15.71,7.24-4.85,5-7.19,12.76-7,25.27.48,32.73.31,78.46,1.32,118.3.23,9.46,2,16.8,7.08,22.21,3.79,4.06,9.46,7.08,17.88,9,8,1.82,18.66,2.65,32.69,2.53,34-.29,82-.35,116-1.14,8.78-.21,16.77.11,23.63-.63,7.35-.79,13.47-2.8,18.09-7.55,5.95-6.14,9.47-17.1,9.35-36.87-.21-34.47-1.6-87.59-1.6-101.84,0-18.41-2.83-28.07-8.15-33.13-3.35-3.19-7.72-4.68-13.21-5.24-7.52-.77-17.29.2-29.43.14C2204.91.42,2159.9-.61,2119,.53Zm.11,4.16c40.83-1.15,85.79-.11,126.63.11,10,0,18.43-.62,25.25-.4,6.25.19,11.09,1.07,14.56,4.36,4.81,4.57,6.85,13.44,6.85,30.11,0,14.25,1.39,67.38,1.6,101.86.11,18.15-2.72,28.32-8.18,34-4,4.07-9.26,5.64-15.54,6.31-6.77.73-14.64.41-23.29.61-34,.79-82,.85-115.95,1.14-13.62.12-23.94-.66-31.73-2.42-7.4-1.68-12.43-4.21-15.76-7.77-4.42-4.73-5.76-11.21-6-19.47-1-39.82-.82-85.54-1.3-118.25-.16-11,1.57-17.94,5.82-22.31,3.15-3.23,7.62-5,13.49-6.06,6.28-1.16,14.08-1.51,23.52-1.77Z"></path> <path class="cls-2" d="M2169.24,52.72c7.17,12,31.77,54.43,44.4,75.72a2.08,2.08,0,1,0,3.58-2.13C2204.58,105,2180,62.54,2172.81,50.58a2.08,2.08,0,0,0-3.57,2.14Z"></path> <path class="cls-2" d="M2263.93,89.65c-7.29-7.17-35.65-27.4-46.82-37.1a2.09,2.09,0,0,1-.2-2.94,2.07,2.07,0,0,1,2.93-.2c11.59,10.07,41.56,31.43,47.74,38a2.9,2.9,0,0,1,.59,2.83,18.51,18.51,0,0,1-3,5.31c-8.35,11.58-33.36,37.22-38.44,42.39a2.08,2.08,0,1,1-3-2.91c5-5.13,29.77-30.46,38-41.92a29.53,29.53,0,0,0,2.11-3.48Z"></path> <path class="cls-2" d="M2104.56,88.86a29.18,29.18,0,0,0,2.17,3.44c8.61,11.46,34.42,36.79,39.66,41.91a2.08,2.08,0,0,1-2.91,3c-5.3-5.18-31.37-30.8-40.07-42.4a18.55,18.55,0,0,1-3.11-5.31,2.87,2.87,0,0,1,.62-2.88c6.44-6.59,37.69-27.95,49.77-38a2.08,2.08,0,1,1,2.66,3.2c-11.63,9.7-41.16,29.9-48.79,37.09Z"></path> <path class="cls-1" d="M1448.54,1008.66c.23,26.51.75,503.11,2.19,503.32,2.18.33,676.27.48,676.36-5.54.07-5.25-1.1-498.3-1.83-498.4-14.47-1.84-631.52.72-676.72.62Z"></path> <path class="cls-2" d="M1449.14,1011.17c-.07,3.69-.26,14.76-.41,25a2.08,2.08,0,0,1-4.16-.06c.19-12.9.07-24.77.5-27a2.32,2.32,0,0,1,2.17-2.07c27.89-.62,555.29-2.8,660.51-2.43,10.61,0,17,.11,18.13.2a2.2,2.2,0,0,1,2.11,2.06c1.19,57.58,1.66,434.54,1.51,500a2.1,2.1,0,0,1-1.74,2.11c-1.07.27-6.91.57-16.71.81-95.33,2.39-576,3.54-658.05,4.21a2.08,2.08,0,0,1,0-4.16c82-.67,562.66-1.82,658-4.21,6.72-.17,12-.46,14.39-.6.14-69.65-.32-433-1.47-496.14-2.75,0-8.66-.13-16.14-.16-103.44-.37-615,1.74-658.59,2.4Z"></path> <path class="cls-2" d="M1449.73,1054.19c76-.29,511.24-2.88,675.49-1.56a2.08,2.08,0,1,0,0-4.16c-164.27-1.32-599.52,1.27-675.54,1.56a2.06,2.06,0,0,0-2.07,2.08,2.08,2.08,0,0,0,2.08,2.08Z"></path> <polygon class="cls-3" points="1552.08 1084.57 1485.77 1084.82 1485.85 1105.57 1552.16 1105.32 1552.08 1084.57 1552.08 1084.57"></polygon> <polygon class="cls-3" points="1756.22 1084.08 1686.23 1084.34 1686.32 1105.84 1756.3 1105.58 1756.22 1084.08 1756.22 1084.08"></polygon> <polygon class="cls-3" points="1708.64 1124.48 1636.52 1124.75 1636.6 1145.35 1708.72 1145.08 1708.64 1124.48 1708.64 1124.48"></polygon> <polygon class="cls-3" points="1571.79 1163.42 1487.52 1163.73 1487.6 1185.23 1571.87 1184.92 1571.79 1163.42 1571.79 1163.42"></polygon> <polygon class="cls-3" points="1622.52 1211.43 1560.13 1211.66 1560.22 1231.88 1622.59 1231.65 1622.52 1211.43 1622.52 1211.43"></polygon> <polygon class="cls-3" points="1654.37 1295.21 1592.03 1295.44 1592.11 1316.4 1654.45 1316.16 1654.37 1295.21 1654.37 1295.21"></polygon> <polygon class="cls-3" points="1657.6 1423.82 1596.04 1424.05 1596.13 1445.62 1657.68 1445.39 1657.6 1423.82 1657.6 1423.82"></polygon> <polygon class="cls-3" points="1552.34 1466.04 1490.78 1466.26 1490.86 1487.83 1552.42 1487.6 1552.34 1466.04 1552.34 1466.04"></polygon> <polygon class="cls-3" points="1763.67 1460.3 1693.91 1460.56 1693.99 1481.3 1763.75 1481.04 1763.67 1460.3 1763.67 1460.3"></polygon> <polygon class="cls-3" points="1582.96 1336.94 1534.88 1337.12 1534.95 1357.86 1583.04 1357.68 1582.96 1336.94 1582.96 1336.94"></polygon> <polygon class="cls-3" points="1572.69 1254.62 1544.7 1254.72 1544.78 1274.69 1572.76 1274.58 1572.69 1254.62 1572.69 1254.62"></polygon> <polygon class="cls-4" points="1636.76 1084.78 1559.01 1084.78 1559.01 1105.38 1636.76 1105.38 1636.76 1084.78 1636.76 1084.78"></polygon> <polygon class="cls-4" points="1646.41 1255.09 1585.05 1255.09 1585.05 1274.4 1646.41 1274.4 1646.41 1255.09 1646.41 1255.09"></polygon> <polygon class="cls-4" points="1723.81 1382.52 1650.66 1382.52 1650.66 1403.15 1723.81 1403.15 1723.81 1382.52 1723.81 1382.52"></polygon> <polygon class="cls-4" points="1902.52 1458.18 1828.13 1458.18 1828.13 1479.36 1902.52 1479.36 1902.52 1458.18 1902.52 1458.18"></polygon> <polygon class="cls-4" points="1851.46 1212.85 1735.28 1212.85 1735.28 1233.46 1851.46 1233.46 1851.46 1212.85 1851.46 1212.85"></polygon> <polygon class="cls-5" points="1898.9 1084.92 1784.76 1084.92 1784.76 1105.62 1898.9 1105.62 1898.9 1084.92 1898.9 1084.92"></polygon> <polygon class="cls-5" points="1691.22 1163.87 1619.75 1163.87 1619.75 1184.55 1691.22 1184.55 1691.22 1163.87 1691.22 1163.87"></polygon> <polygon class="cls-5" points="1706.26 1211.28 1633.52 1211.28 1633.52 1231.09 1706.26 1231.09 1706.26 1211.28 1706.26 1211.28"></polygon> <polygon class="cls-5" points="1741.72 1255.26 1668.43 1255.26 1668.43 1274.64 1741.72 1274.64 1741.72 1255.26 1741.72 1255.26"></polygon> <polygon class="cls-5" points="1665.98 1336.81 1592.64 1336.81 1592.64 1357.58 1665.98 1357.58 1665.98 1336.81 1665.98 1336.81"></polygon> <polygon class="cls-5" points="1600.65 1384.06 1519.78 1384.06 1519.78 1403.77 1600.65 1403.77 1600.65 1384.06 1600.65 1384.06"></polygon> <polygon class="cls-5" points="1622.33 1466.04 1564.55 1466.04 1564.55 1485.55 1622.33 1485.55 1622.33 1466.04 1622.33 1466.04"></polygon> <polygon class="cls-5" points="1601.83 1124.69 1486.41 1124.69 1486.41 1145.45 1601.83 1145.45 1601.83 1124.69 1601.83 1124.69"></polygon> <path class="cls-3" d="M1650.67,1084.14a11.92,11.92,0,0,0,1.3,21.67,2.08,2.08,0,0,0,1.47-3.89,7.79,7.79,0,0,1-.71-14.17,2.08,2.08,0,1,0-2.06-3.61Z"></path> <path class="cls-3" d="M1659.29,1254.08a11.93,11.93,0,0,0,1.3,21.68,2.08,2.08,0,0,0,1.48-3.89,7.79,7.79,0,0,1-.73-14.17,2.08,2.08,0,0,0-2-3.62Z"></path> <path class="cls-3" d="M1687.36,1334.76c-9.41,5.58-7.71,18.87,1.31,22.43a2.08,2.08,0,1,0,1.53-3.86c-6-2.39-7-11.26-.72-15a2.08,2.08,0,0,0-2.12-3.59Z"></path> <path class="cls-3" d="M1662.78,1087.85c6,3.52,5.08,11.94-.69,14.19a2.08,2.08,0,0,0,1.52,3.88c8.8-3.44,10.45-16.28,1.28-21.66a2.08,2.08,0,1,0-2.11,3.59Z"></path> <path class="cls-3" d="M1723.9,1338.44c6,3.52,5.07,11.93-.69,14.19a2.08,2.08,0,1,0,1.52,3.87c8.8-3.43,10.44-16.27,1.27-21.65a2.08,2.08,0,0,0-2.1,3.59Z"></path> <path class="cls-3" d="M1752.45,1257.91c6,3.52,5.08,11.94-.68,14.19a2.08,2.08,0,1,0,1.52,3.88c8.79-3.44,10.44-16.28,1.27-21.66a2.08,2.08,0,0,0-2.11,3.59Z"></path> <path class="cls-4" d="M1728.59,1124.15c-5.23,2.56-7.38,7-7.06,11.2s3.12,8.29,8.16,10.26a2.08,2.08,0,0,0,1.52-3.88c-3.34-1.3-5.32-3.92-5.53-6.7s1.35-5.49,4.74-7.15a2.08,2.08,0,0,0-1.83-3.73Z"></path> <path class="cls-4" d="M1709.44,1164.49c-5.23,2.55-7.38,7-7.06,11.2s3.12,8.28,8.16,10.25a2.07,2.07,0,0,0,2.7-1.17,2.09,2.09,0,0,0-1.18-2.7c-3.34-1.3-5.32-3.93-5.53-6.7s1.35-5.49,4.73-7.14a2.08,2.08,0,1,0-1.82-3.74Z"></path> <path class="cls-4" d="M1767.91,1127a7.68,7.68,0,0,1-.67,13.92,2.08,2.08,0,0,0,1.69,3.81c9-4,10.22-16.28,1-21.38a2.09,2.09,0,0,0-2,3.65Z"></path> <path class="cls-4" d="M1784.28,1463.61a7.75,7.75,0,0,1-.65,13.94,2.08,2.08,0,1,0,1.7,3.79,11.87,11.87,0,0,0,1-21.36,2.08,2.08,0,0,0-2,3.63Z"></path> <path class="cls-5" d="M1657.81,1462.41c-4.6,3.17-6.77,7.4-6.83,11.54s2,8.32,6.21,11.3a2.08,2.08,0,0,0,2.41-3.4c-2.93-2.08-4.5-4.92-4.46-7.84s1.73-5.91,5-8.17a2.08,2.08,0,1,0-2.36-3.43Z"></path> <path class="cls-5" d="M1667.61,1465.75c3.3,2.26,5,5.2,5,8.16s-1.53,5.76-4.46,7.84a2.08,2.08,0,0,0,2.41,3.4c4.18-3,6.26-7.13,6.21-11.3s-2.23-8.37-6.83-11.54a2.09,2.09,0,1,0-2.36,3.44Z"></path> <path class="cls-3" d="M1609.69,1135c2.1-.1,6,0,7.54,0a2.08,2.08,0,1,0,0-4.16c-1.58,0-5.58-.13-7.73,0a2.09,2.09,0,0,0-2,2.17,2.11,2.11,0,0,0,2.18,2Z"></path> <path class="cls-3" d="M1799.07,1469.09c2.1-.1,6,0,7.55,0a2.09,2.09,0,0,0,0-4.17c-1.59,0-5.58-.12-7.73,0a2.08,2.08,0,0,0,.18,4.16Z"></path> <path class="cls-3" d="M1609.91,1142.84c2.57,0,4.83,0,7.61,0a2.08,2.08,0,1,0,0-4.16c-2.76,0-5,0-7.57,0a2.08,2.08,0,0,0,0,4.16Z"></path> <path class="cls-3" d="M1799.3,1476.93c2.57,0,4.83,0,7.61,0a2.1,2.1,0,0,0,2.07-2.1,2.08,2.08,0,0,0-2.1-2.06c-2.76,0-5,0-7.57,0a2.08,2.08,0,1,0,0,4.16Z"></path> <path class="cls-3" d="M1628.88,1137.27c-1.27-1.14-3.35-3-5.4-4.49a2.08,2.08,0,1,1,2.5-3.32,53.11,53.11,0,0,1,7.63,6.67,2.52,2.52,0,0,1-.64,3.2,40.92,40.92,0,0,1-7.65,4.74,2.08,2.08,0,0,1-1.81-3.75,48.9,48.9,0,0,0,5.37-3Z"></path> <path class="cls-3" d="M1818.26,1471.37c-1.27-1.15-3.34-2.95-5.39-4.49a2.08,2.08,0,1,1,2.5-3.32,53.06,53.06,0,0,1,7.63,6.67,2.53,2.53,0,0,1-.65,3.2,40.59,40.59,0,0,1-7.65,4.74,2.08,2.08,0,0,1-1.81-3.75,48.9,48.9,0,0,0,5.37-3.05Z"></path> <path class="cls-5" d="M1872.65,1223.65c-.37-.36-.89-.86-1.38-1.25-2.55-2-6.56-4.64-9.65-6.6a2.08,2.08,0,0,1,2.23-3.51c4.14,2.63,9.83,6.38,12,8.57a4.29,4.29,0,0,1,1.38,2.71c0,.92-.61,2.27-2.16,3.61-2.22,1.92-6.57,4.42-11,6.81a2.06,2.06,0,0,1-2.81-.85,2.09,2.09,0,0,1,.85-2.82,82.69,82.69,0,0,0,9.36-5.56,12.14,12.14,0,0,0,1.27-1.11Z"></path> <path class="cls-5" d="M1768.18,1391.09c-.37-.36-.89-.86-1.38-1.25-2.54-2-6.56-4.64-9.65-6.6a2.08,2.08,0,0,1,2.23-3.51c4.14,2.62,9.83,6.37,11.94,8.57a4.32,4.32,0,0,1,1.4,2.71,5.32,5.32,0,0,1-2.17,3.61c-2.22,1.91-6.57,4.42-11,6.81a2.08,2.08,0,1,1-2-3.67,84.21,84.21,0,0,0,9.36-5.56,12.28,12.28,0,0,0,1.27-1.11Z"></path> <path class="cls-5" d="M1523.06,1219.64a16.74,16.74,0,0,0,1.6,1.15,115,115,0,0,0,11.94,5.89,2.08,2.08,0,0,1-1.69,3.8c-5.6-2.49-11.09-5.1-13.87-7.1a8,8,0,0,1-2.24-2.2,3.18,3.18,0,0,1-.47-1.62,4.4,4.4,0,0,1,1.75-2.92c2.67-2.29,9.83-6.2,15-9a2.08,2.08,0,1,1,1.94,3.69c-3.93,2.07-9,4.82-12.28,7-.6.4-1.25.9-1.72,1.29Z"></path> <path class="cls-5" d="M1581,1422.7c-3.42,8.35-7.29,17-10.08,23.59a2.08,2.08,0,0,0,3.84,1.62c2.79-6.62,6.66-15.26,10.09-23.64a2.08,2.08,0,0,0-3.85-1.57Z"></path> <path class="cls-5" d="M1580.06,1294.55c-2.31,6.66-5,14.26-7.92,21.29a2.08,2.08,0,1,0,3.85,1.58c2.91-7.1,5.67-14.78,8-21.5a2.08,2.08,0,0,0-3.93-1.37Z"></path> <path class="cls-4" d="M1550.89,1208.85c-4.28,10.49-4.56,11.21-8.76,21.79a2.08,2.08,0,1,0,3.87,1.53c4.19-10.56,4.47-11.28,8.74-21.75a2.08,2.08,0,1,0-3.85-1.57Z"></path> <path class="cls-4" d="M1552.78,1435.86c.25.15.62.36,1,.52,2.3,1,6.19,2.24,11.28,4.82a2.08,2.08,0,1,1-1.88,3.71c-5.94-3-10.25-4.17-12.29-5.34-1.74-1-2.38-2.18-2.36-3.49a5.27,5.27,0,0,1,1.89-3.74c1.94-1.85,6-4,11.89-7.88a2.08,2.08,0,0,1,2.27,3.48c-4.83,3.16-8.42,5.13-10.52,6.75a7.54,7.54,0,0,0-1.07,1c-.06.07-.12.13-.17.2Z"></path> <path class="cls-4" d="M1699,1433.84a8.28,8.28,0,0,0,1,.52c2.3,1,6.2,2.25,11.29,4.82a2.08,2.08,0,1,1-1.88,3.72c-5.94-3-10.26-4.16-12.3-5.33-1.73-1-2.38-2.19-2.36-3.49a5.23,5.23,0,0,1,1.89-3.74c1.94-1.87,6-4,11.89-7.89a2.08,2.08,0,0,1,2.28,3.49c-4.84,3.15-8.42,5.12-10.52,6.75a7.1,7.1,0,0,0-1.08,1l-.16.18Z"></path> <path class="cls-4" d="M1684.48,1433.72l-.11-.11a7.94,7.94,0,0,0-1.18-1c-2.27-1.62-6.16-3.59-11.4-6.76a2.08,2.08,0,0,1,2.15-3.56c6.35,3.83,10.76,6,12.85,7.87a5.18,5.18,0,0,1,2.06,3.79c0,1.3-.66,2.54-2.53,3.53-2.21,1.17-6.88,2.32-13.31,5.32a2.08,2.08,0,1,1-1.76-3.76c5.51-2.58,9.73-3.79,12.21-4.82.35-.15.75-.36,1-.51Z"></path> <path class="cls-4" d="M1679.45,1307.69a3.06,3.06,0,0,0-.26-.32,8.11,8.11,0,0,0-1.19-1c-2.27-1.74-6.16-3.84-11.4-7.22a2.08,2.08,0,0,1,2.26-3.5c6.34,4.09,10.75,6.42,12.84,8.4a5.46,5.46,0,0,1,2,3.91c0,1.34-.67,2.58-2.48,3.6-2.21,1.26-6.88,2.49-13.31,5.7a2.08,2.08,0,0,1-1.86-3.73c5.51-2.75,9.73-4,12.22-5.14a9.27,9.27,0,0,0,1.17-.65Z"></path> <path class="cls-3" d="M1737.25,1383.87c-.2-1.61,1.28-2.13,2.64-2.1a4.52,4.52,0,0,1,2.51.75,1.78,1.78,0,0,1,.87,1.44c.09,3.62-2.22,4.57-3.93,5.94a7.68,7.68,0,0,0-3.36,6.68,2.08,2.08,0,1,0,4.16,0c0-2.35,1.51-3.16,2.87-4.2,2.31-1.77,4.54-3.75,4.42-8.48-.1-3.79-3.75-6.18-7.46-6.24a7.1,7.1,0,0,0-5.63,2.27,5.66,5.66,0,0,0-1.22,4.5,2.08,2.08,0,1,0,4.13-.51Z"></path> <path class="cls-3" d="M1737.36,1402.34a2.08,2.08,0,0,1,2.93,2.28,1,1,0,0,1,0,.3,1.93,1.93,0,0,1-.52.84,2,2,0,0,1-1.56.63,2.08,2.08,0,0,1-.81-4.05Zm-.94,1a1.83,1.83,0,0,0-.11.26c-.22.66.63,2.24.63,2.24a5.26,5.26,0,0,1-.52-2.5Zm1.37-1.11h0Z"></path> <path class="cls-3" d="M1553.21,1305.36c3.1,1.8,9.12,5.28,12.18,7a2.08,2.08,0,1,1-2,3.62c-4.42-2.5-13-7.17-14.71-8.52a2.28,2.28,0,0,1,0-3.83c1.72-1.48,10.48-7.22,14.25-10.06a2.08,2.08,0,0,1,2.5,3.33c-2.93,2.19-8.91,6.16-12.14,8.45Z"></path> <path class="cls-3" d="M1632.67,1473.86c3.11,1.8,9.12,5.28,12.18,7a2.08,2.08,0,1,1-2,3.63c-4.42-2.5-13-7.17-14.71-8.53A2.52,2.52,0,0,1,1627,1474a2.6,2.6,0,0,1,1-1.9c1.71-1.48,10.48-7.22,14.25-10.05a2.08,2.08,0,1,1,2.5,3.32c-2.93,2.2-8.91,6.17-12.14,8.46Z"></path> <path class="cls-3" d="M1488.52,1207.51c-.4,38,1.67,202.18,1,244a2.08,2.08,0,0,0,4.16.07c.71-41.78-1.35-205.93-1-244a2.08,2.08,0,0,0-4.16,0Z"></path> <path class="cls-3" d="M1520.36,1415.74c0,14.73.09,23.69-.11,34.26a2.08,2.08,0,0,0,4.16.08c.2-10.6.08-19.57.11-34.33a2.08,2.08,0,0,0-4.16,0Z"></path> <path class="cls-3" d="M1515.64,1240.12c.68,21.11.5,66.17.5,84.69a2.08,2.08,0,0,0,4.16,0c0-18.55.18-63.68-.5-84.82a2.08,2.08,0,0,0-4.16.13Z"></path> <path class="cls-3" d="M1579.06,1166.1c.07,7.16.22,11.71.14,16.83a2.08,2.08,0,0,0,4.16.07c.08-5.15-.07-9.73-.14-16.93a2.06,2.06,0,0,0-2.09-2.06,2.08,2.08,0,0,0-2.07,2.09Z"></path> <path class="cls-3" d="M1610.89,1383.58c.07,7.15.22,11.7.14,16.82a2.08,2.08,0,0,0,4.16.07c.09-5.15-.07-9.73-.13-16.93a2.09,2.09,0,0,0-4.17,0Z"></path> <path class="cls-3" d="M1587.84,1166.14c0,5.59.05,12.91,0,16.53a2.08,2.08,0,0,0,2.06,2.09,2.1,2.1,0,0,0,2.1-2.07c0-3.63,0-11,0-16.54a2.08,2.08,0,1,0-4.16,0Z"></path> <path class="cls-3" d="M1619.67,1383.62c0,5.58,0,12.9,0,16.52a2.08,2.08,0,0,0,4.16,0c0-3.63,0-11,0-16.54a2.08,2.08,0,1,0-4.16,0Z"></path> <path class="cls-3" d="M1598.77,1167.68c2,0,3.72,0,6,0a2.89,2.89,0,0,0,.09-5.78c-2.36,0-4.16-.08-6.19,0a2.89,2.89,0,0,0,.1,5.78Z"></path> <path class="cls-3" d="M1598.76,1166.87c2,0,3.73,0,6,0a2.08,2.08,0,0,0,.06-4.16c-2.36,0-4.14-.08-6.17,0a2.07,2.07,0,0,0-2,2.11,2.09,2.09,0,0,0,2.12,2Z"></path> <path class="cls-3" d="M1697.34,1338.74c1.79,0,3.38,0,5.47,0a2.08,2.08,0,0,0,2.1-2,2.1,2.1,0,0,0-2.07-2.11c-2.14,0-3.76,0-5.61,0a2.08,2.08,0,1,0,.11,4.16Z"></path> <path class="cls-3" d="M1711,1339c1.8,0,3.39,0,5.48,0a2.08,2.08,0,0,0,0-4.16c-2.15,0-3.77,0-5.62,0a2.08,2.08,0,1,0,.1,4.16Z"></path> <path class="cls-3" d="M1631,1384.45c2.27,0,4.26.06,6.89.08a2.08,2.08,0,1,0,0-4.16c-2.61,0-4.59,0-6.83-.08a2.08,2.08,0,0,0-.09,4.16Z"></path> <path class="cls-4" d="M1737.62,1127c2.61.08,3.87,0,5.9.07a2.08,2.08,0,0,0,.09-4.16c-2-.05-3.27,0-5.86-.07a2.08,2.08,0,0,0-.13,4.16Z"></path> <path class="cls-4" d="M1753.29,1127.14c1.89,0,3.67.1,5.73,0a2.09,2.09,0,0,0-.12-4.17c-2,.06-3.7,0-5.52,0a2.08,2.08,0,1,0-.09,4.16Z"></path> <path class="cls-4" d="M1772.67,1462.24h4.66a2.08,2.08,0,0,0,0-4.16h-4.63a2.06,2.06,0,0,0-2.08,2.07,2.09,2.09,0,0,0,2.07,2.09Z"></path> <path class="cls-3" d="M1521.67,1351.43c-1-.32-3.45-1.11-3.71-1.21a2,2,0,0,1-1.35-2.37,2,2,0,0,1,2.08-1.69,2.58,2.58,0,0,0,1.63-1.05c.47-.52.93-1.08.91-1.53a21.93,21.93,0,0,1,.28-5.4,6.68,6.68,0,0,1,2.38-3.91,7.74,7.74,0,0,1,5.93-1.19,2.08,2.08,0,0,1-.56,4.13,3.86,3.86,0,0,0-2.85.37,3.09,3.09,0,0,0-1,2.19,21,21,0,0,0,0,3.7,7,7,0,0,1-1.81,4.2,4.81,4.81,0,0,1,.86.47,2.92,2.92,0,0,1,1.4,2.33c0,1.2-.19,2.57-.3,3.9a11.91,11.91,0,0,0,0,1.68,1.64,1.64,0,0,0,.41,1.13,3.58,3.58,0,0,0,2.52.56,2.08,2.08,0,0,1,0,4.16c-3,0-4.65-.84-5.66-1.94a6.44,6.44,0,0,1-1.48-4.54c0-1.28.25-2.7.33-4Z"></path> <path class="cls-6" d="M1749.19,1347.18a4.83,4.83,0,0,1-.86-.46,2.91,2.91,0,0,1-1.41-2.32,39,39,0,0,1,.29-3.9,10.54,10.54,0,0,0,0-1.68,1.66,1.66,0,0,0-.41-1.14,3.67,3.67,0,0,0-2.52-.54,2.08,2.08,0,0,1,0-4.16c3,0,4.64.82,5.67,1.92a6.44,6.44,0,0,1,1.49,4.52c0,1.3-.23,2.71-.31,4,1,.32,3.45,1.1,3.71,1.2a2,2,0,0,1,1.36,2.35,2,2,0,0,1-2.07,1.71,2.62,2.62,0,0,0-1.62,1.06,2.79,2.79,0,0,0-.92,1.53,21,21,0,0,1-.26,5.4,6.63,6.63,0,0,1-2.36,3.92,7.71,7.71,0,0,1-5.92,1.21,2.08,2.08,0,0,1,.54-4.13,3.8,3.8,0,0,0,2.85-.39,3.07,3.07,0,0,0,.95-2.19,20.87,20.87,0,0,0,0-3.69,7,7,0,0,1,1.79-4.22Z"></path> <polygon class="cls-6" points="633.54 1367.16 252.19 1367.16 252.19 1534.8 633.54 1534.8 633.54 1367.16 633.54 1367.16"></polygon> <path class="cls-8" d="M633.54,1535.3H252.19a.5.5,0,0,1-.5-.5V1367.16a.51.51,0,0,1,.5-.5H633.54a.5.5,0,0,1,.5.5V1534.8A.5.5,0,0,1,633.54,1535.3Zm-380.85-1H633V1367.66H252.69Z"></path> <path d="M327,1469.42c-10.82,0-19.62-8.42-19.62-18.77s8.8-18.78,19.62-18.78,19.62,8.42,19.62,18.78S337.79,1469.42,327,1469.42Zm0-33.05c-8.33,0-15.12,6.4-15.12,14.28s6.79,14.27,15.12,14.27,15.12-6.4,15.12-14.27S335.31,1436.37,327,1436.37Z"></path> <path d="M446.72,1466.54c-10.82,0-19.62-8.42-19.62-18.78s8.8-18.78,19.62-18.78,19.62,8.43,19.62,18.78S457.54,1466.54,446.72,1466.54Zm0-33.06c-8.34,0-15.12,6.41-15.12,14.28s6.78,14.28,15.12,14.28,15.12-6.4,15.12-14.28S455.06,1433.48,446.72,1433.48Z"></path> <path d="M561,1465.93c-10.81,0-19.61-8.42-19.61-18.77s8.8-18.78,19.61-18.78,19.63,8.42,19.63,18.78S571.85,1465.93,561,1465.93Zm0-33c-8.33,0-15.11,6.4-15.11,14.28s6.78,14.27,15.11,14.27,15.13-6.4,15.13-14.27S569.37,1432.88,561,1432.88Z"></path> <path class="cls-9" d="M1353.3,331c-7-14.65-17.6-2.76-25-3.23-7.27-.47-15.26-5.12-22.4-3.87-10,1.77-15.27,14.65-22.85,20.31-13.49,10.09-35.34-6.59-43.92,10.38-9,17.79-2.12,59.14-19.72,70.3-8.07,5.12-17.19-4.29-29.09-7.55-10.57-2.89-28.1.58-36.93,18.15-3.17,6.3-5.85,19.92-.57,30.66,9.29,18.91,41,16.22,42.21,19.65,7.39,20.6,8.79,48.95,8.81,72.24,0,2.7-2.74,29.92,15.37,51.58,9.08,10.86,23.74,21.32,46.78,24.46,19.34,2.63,42-4.73,58.6-15.65,16.1-10.58,27.73-25.57,28.19-29.42.07-.61-7.24.3-13.72-2.24-7.5-2.95-10.72-8.29-11.91-11.62-2.46-6.89-2-46.18-.83-46.6,21.47-7.49,29.73-24.78,36.51-47.12,12.52-41.29-1.89-134.56-9.5-150.43Z"></path> <path class="cls-9" d="M675.21,399.55c-.79,16.92-.59,42-.41,43.11.58,3.75-72.54,7.23-78,17.13-5.92,10.74-2,39.6-.72,50.92,3.93,34.21,13.31,71.77,17.16,105.92,3.63,32.34,7,62.65,8,92.72,1.88,57.7,2.73,107.17,3.85,164.89,1,49.67-1.81,89.1,22.26,142.84,10.12,22.61,38.9,51.94,69.12,46.12,44.67-8.61,80.06-48.1,113-74.35,5.92-4.73,39.36-33.32,39.07-34.23-4.15-13.27-54.3-163.43-64-169.68-3.28-2.11-41.59,43.42-43,41.21-2.6-4.11-22.19-175.63-24.14-199-1.45-17.45-6.5-37.18-4.36-54.62,1.33-10.87,9.15-15.6,10.87-26.41,4.77-29.82,9.52-60.77-2.19-97.56-7.72-24.31-20.4-23-21.44-25.22s-.51-34.41-.45-39.29c.07-4.33-44.34,10.59-44.56,15.47Z"></path> <path class="cls-9" d="M2070.71,180.38c-6.28,10.38-20.65,39.07-20.72,39.12-.34.28-12.93,1.11-16.92,3.91-8.82,6.19-39.61,80.31-42.14,93.6-1.82,9.56.26,23-2.51,32.41-10.7,36.21-32.54,71.81-49.4,105.22-23.74,47.1-39.18,77.43-60.25,120.16-13.27,26.92-47.69,100.8-50.74,108.42-1.09,2.72-68.63-5-83.32-7.34-4.07-.63-22.14-5.63-24.41-1.91-.67,1.1,1.28,22.74,2.88,40.37,2.72,29.88,4.89,60.25,6.24,90.26,1,21.4.38,36.48,1.32,39.6.51,1.7,61-.81,88.3-3,29.61-2.31,115.51-5.78,136.79-27.09,11.69-11.71,34.88-93.55,42.67-119.42,17.4-57.69,26.71-103.74,41.44-156.34,7.79-27.8,11.78-55.14,19.82-82.83,4.87-16.78,6.39-31.63,14.52-46.87,13.89-26,70.21-73,70-110.56,0-5.07-9.93-14-33.74-24.93-17-7.85-31.37-19.09-31.22-20.27,2.23-17.41,25.71-55,26.11-62.87.44-8.33-28.55-15.31-34.68-9.69Z"></path> <path class="cls-10" d="M980.5,1255.42c-1.54,11-16.43,280.6-16.91,347-.41,56.29,2.09,115.67,1.67,169.07-.16,20.79-.87,71.89,1.5,106,.92,13.14,32.8,8.93,39.77,9.42,60.4,4.2,167.5,3.1,171-6.42,6.28-16.87,17-59.11,21.06-80.73,11.44-61.28,64.7-264.84,68.24-266.17,4-1.51,63.3,227.8,79.63,284.38,4.45,15.44,7.36,40.27,23.9,70,3.93,7,190-9.42,200.33-21.55,4.65-5.46.29-92,.46-104.24.6-42.74-14.41-153.7-17.61-236.89-1-26.2-105.55,26.72-106.53-21.67-2.28-112.78,15-213.76-7.61-216.33-51.41-5.84-354.43-12.93-458.94-31.9Z"></path> <path class="cls-3" d="M1199.9,559.53c-57.41,1.56-113.27,2.08-161.61,20.39-62.89,23.82-118.22,73.18-170.1,132.24-10.32,11.74-71.9,68-72.4,75.92-.17,2.79,42.08,64.75,63.58,90.59,4.5,5.4,53.68,69.62,54.94,68.36,20.21-20.2,40.91-50.14,60.28-71.14,2.49-2.7,25.52-32.08,25.16-23.08-.75,18.46-3.94,69.36-5,83.35-5.82,75.64-8.6,143.4-13,219.13-1,16.94-1.6,49-3,95.93-.56,18.37,130.35,30.24,160.3,32.47,38.75,2.9,288.74,8.26,295.39,2.56,10.51-9-1.32-168.16-1.67-190.47-.31-19.8-1.69-37.92-1.1-66,0-.9,6.44,1.62,10.38-4.06,2.48-3.57,4.19-6.57,4.51-16.06.12-3.31,45.76,0,45.9-1.86,4.18-57.73,10.19-137.88,20.68-163.44,1.64-4,51.44,3.69,99.83,13.17,35.1,6.87,76.73,14.62,79.62,12,3.29-3.05,16.22-103.1,19.71-120.32,1.91-9.45,6.64-51.84,9.29-76,.24-2.24-86.86-8.77-118.37-20.42-91.6-33.89-141.49-55.35-247.36-63.23-6.12-.46-33.58,53-93.66,45.67-34.73-4.25-56.7-42.54-62.22-75.62Z"></path> <path class="cls-2" d="M1720.46,672.81c-5.91,43.3-25.62,173.6-25.13,173.57,19.23-.86,33.07-.24,35.75-.51,4.58-.46-.45-137.51-4.81-172.24-.19-1.5-5.29-4.64-5.81-.82Z"></path> <path class="cls-2" d="M2108.43,188.22c1.41-.39-31.41-32-32.2-30.44-5.93,11.87-7.4,18.53-12.55,29.41-.91,1.93,27.33.33,44.75,1Z"></path> <path class="cls-2" d="M793.65,790.15c-1.89-2.6,67.73,170.74,71.21,171,3.79.3,32.53-28.14,34.7-30.8,1-1.17-75.23-97.75-105.91-140.2Z"></path> <path class="cls-2" d="M962.74,1462.52c-.28,10.18.19,17.5,0,25.71,0,1.21,39.22.12,52.41-1.14,1.73-.16,1.06-10.52.56-23.87-.13-3.32-43.3-1-53-.7Z"></path> <path class="cls-2" d="M1065.31,1275.5c.29,11.74,369.41,53.85,368.94,45.31-.67-12.2.58-46.45-1.84-46.16-29.94,3.56-113,11.7-144.92,11.51-95.89-.57-222.26-14.2-222.18-10.66Z"></path> <path class="cls-2" d="M673,377.29c.25,11.45.31,15.54-.14,28.15-.07,2,50.24-16,50.49-26.67,0-1.48-32.62-1.16-50.35-1.48Z"></path> <path class="cls-2" d="M1426.52,1021.08c.07,15,.09,483.73.85,514.25,0,1.37,125.71.24,125.7-.21-.12-8.48-1-24.73-1.38-24.73-25.36-.53-99.62.33-99.66-.62-.92-28.7-2.16-462.51-2.58-488.31,0-1-9.1-.05-22.93-.38Z"></path> <path class="cls-2" d="M2134.94,282.52c-11.79-8.08-30.3-13.72-38.89-19.2-8.15-5.21-12.46-9.63-14-11.59,7.5-15.84,21.63-49.48,28.34-64.91a2.08,2.08,0,1,0-3.82-1.66c-4.21,9.7-11.36,26.59-18,41.72a10,10,0,0,0-3.45-4.15c-2.52-1.83-6.19-3.14-10.5-4a91.77,91.77,0,0,0-21.41-1c4.69-8.93,7.4-14.55,15.3-31.38a2.08,2.08,0,1,0-3.76-1.77c-8.5,18.11-11,23.16-16.39,33.44l0,.08c-3.57.35-6.9.82-9.71,1.39-4.51.9-7.78,2.13-9,3.23-3.31,2.93-7.72,9.54-12.41,18.34-10.66,20-23,51.41-27.85,74.91-1.61,7.78-1.78,16.13-2.33,24.44-.53,8-1.4,15.92-4.45,23.23-5.77,13.84-76.74,152.28-104.55,207-5,9.94-32.75,73.12-46.38,99.67-2,3.92-3.69,7-5,9a21.14,21.14,0,0,1-1.34,1.85,7.61,7.61,0,0,1-2.24.27,92.38,92.38,0,0,1-10.15-.24c-29.24-1.88-94.9-11.81-104.1-12.94-32.27-3.95-68.81-6.82-99.6-17.35-49.65-17-181.19-61.81-256.55-64.63a1.08,1.08,0,0,0-.31,0,.78.78,0,0,0-.22,0c-8.31.05-15.09-1.47-19.55-6.26s-6.57-13-5.76-25.76c.4-6.44.39-13.54.83-24.43.65-.23,1.29-.47,1.91-.72,12.31-5,21.35-14.63,28.85-29.08,7.13-13.71,10.85-35,10.86-53.24,0-22.62-.72-50.34-6.31-84.44-1.88-11.48-5-23.5-8.27-30.81-1.57-3.51-3.26-6-4.8-7.1-3-2.14-6.18-1.85-9.47-.51-2,.82-4.06,2.06-6.06,3.13a13.82,13.82,0,0,1-4.89,1.86c-4.49.41-8.12-2-12-4-4.71-2.33-9.74-4.13-16.38-1.83-6.28,2.17-9.79,7-13,11.91-2.74,4.24-5.16,8.61-9.7,10.68-4,1.8-8.35.63-12.88-.16-5.41-1-11-1.53-16.33,1.65C1242.44,351.2,1238,359,1235,368c-4.21,12.91-5.39,28.36-6.68,37.84-.49,3.6-.23,8.21-.63,12.51-.34,3.68-1.11,7.17-3.8,9.24a7.81,7.81,0,0,1-4.43,1.88c-2.18.08-4.14-1.13-6.27-2.67-4.38-3.18-9.23-7.84-16.23-9.95-13.69-4.11-26.06-2.19-35.09,3.82S1147,437,1146.74,449.59c-.63,27,22.46,33.7,36.86,36,3.18.49,5.91.78,7.79,1,.54.07,1.12.18,1.5.25,10.49,22.05,9.66,46.81,7.86,71.49-73.35-5.45-146.15,10.28-183,26.49C940,619,816.37,761.11,761,823.66c-2.37-22.91-4.83-44-7-58.52-8-54-12.66-123.76-19.65-183.6-.87-7.47,1.65-12.9,4.52-18.34,3.17-6,6.76-12,7.66-20.21,4-36.69,8-71.38-7.83-107.72-.89-2-3.48-4.76-7.23-7.56a82.72,82.72,0,0,0-8.42-5.43c0-10.16,0-26-.09-41.22a2.08,2.08,0,1,0-4.16,0c0,14.14.08,28.8.09,39a81.23,81.23,0,0,0-19.51-7.29c-4.15-.85-7.87-1-10.72-.17a8.9,8.9,0,0,0-5.19,3.49c-4.84,7.06-3.26,13.85,1.47,20.6a50,50,0,0,0,3.44,4.32c-3.32,0-7.39.25-12,.6.22-8.84.21-25.46.59-38.82a2.08,2.08,0,0,0-4.16-.11c-.38,13.41-.37,30.14-.6,38.95a1.82,1.82,0,0,0,0,.32c-21.83,1.9-52.29,6.37-67.51,10.77a33.74,33.74,0,0,0-8.6,3.42,5.08,5.08,0,0,0-2,2.25c-2.16,5.5-2.69,16.41-1.91,30.57,1.76,32.19,10,81.63,18.41,121.6,9.89,46.84,9.64,329.71,19,362.64,17.33,61,41.62,85.71,66.9,91.29,15.32,3.39,31.13-.22,46.24-7.29,22.19-10.41,42.88-28.33,58.18-41.8,22.46-19.78,49.18-38.18,70.14-59.15a2.08,2.08,0,1,0-2.94-2.94c-20.91,20.9-47.56,39.24-70,59-15,13.25-35.37,30.91-57.19,41.15-14.25,6.67-29.13,10.19-43.58,7-24.34-5.38-47.11-29.65-63.8-88.36-9.35-32.91-9-315.56-18.93-362.37-6.43-30.46-12.73-66.43-16.12-96,8,12,14.77,15.37,22.49,14.53,5.48-.58,9.42-2.59,12.25-5.68,2.68-2.93,4.33-6.91,5.19-11.74,4.42,9.09,11.46,14.38,22.4,11.7a14.93,14.93,0,0,0,5.53-2.64c-2.83,8.38-4.3,19.55-3.2,34.81a2.08,2.08,0,1,0,4.15-.29c-1.48-20.57,1.79-33.3,6.9-41.68s11.83-12.22,17.26-15.39a49.18,49.18,0,0,0,6.56-4.27,10.6,10.6,0,0,0,4-6c.68-3.23,4.24-16.42,5-25.36a24.67,24.67,0,0,0-.12-6.32,6.18,6.18,0,0,0-1.55-3.3c-6.14-6-12.87-11.88-17-17.77-3.65-5.2-5.18-10.41-1.45-15.85a5.56,5.56,0,0,1,4-2.08,22.8,22.8,0,0,1,7.67.48c10,2,22.77,8.49,30.42,14.22,3,2.23,5.21,4.26,5.92,5.89,15.57,35.61,11.45,69.64,7.51,105.59-.84,7.62-4.27,13.16-7.21,18.73-3.25,6.14-6,12.32-5,20.77,7,59.88,11.64,129.7,19.67,183.72,4.89,33,11.3,99.64,14.82,144.87a2.08,2.08,0,1,0,4.15-.32c-1.86-23.86-4.52-53.66-7.33-81.36a2.06,2.06,0,0,0,.84-.57c8.89-10,19.69-22.33,31.86-36a2.18,2.18,0,0,0,.24.42c8.94,11.94,96.57,131.76,115.9,153.35a23.72,23.72,0,0,0,3.62,3.52,2.28,2.28,0,0,0,3.23-.29c10.43-12.42,65.21-78.1,80.16-95.49-1.72,37.62-16.91,260.22-20.2,357-.63,18.65-.82,32.65-.4,39.84a2,2,0,0,0-.14.68c-.56,17.26-.47,25.86-.7,42.19a2.08,2.08,0,1,0,4.16.06c.2-13.63.16-21.89.47-34.31,3.84,2.81,10.25,5.35,18.26,7.53,21.54,5.85,54.77,9.69,76.24,12.87-6.18,32.27-20.26,59.66-51.37,72.9a2.08,2.08,0,0,0,1.63,3.83c32.86-14,47.73-42.94,54.06-77.16a2.07,2.07,0,0,0-1.33-3.33c-21.19-3.23-55.92-7.09-78.14-13.13-8.86-2.41-15.68-5-18.49-8.26a38.05,38.05,0,0,1-.51-4.39c-.4-7.18-.2-20.93.42-39.18,3.57-104.83,21-357,20.32-363a2.08,2.08,0,0,0-3.21-1.51,26.07,26.07,0,0,0-2.48,2.6c-11.41,13.08-67.19,80-80.71,96.08-.51-.5-1.17-1.17-1.79-1.86-19.29-21.55-106.75-141.15-115.66-153.07a2.13,2.13,0,0,0-1.07-.74C858.88,720,955,616.93,1019.38,588.62c36.48-16,108.46-31.53,181-26.15.75,16.91,5.13,34.72,21.74,53.09,14.06,15.53,33.8,22.05,54.14,21.23,30.17-1.22,61.65-18.6,77.6-46.28,75.22,3.27,204.92,47.53,254.05,64.34,31.06,10.63,67.9,13.57,100.45,17.55,9.22,1.13,75,11.08,104.33,13a80.83,80.83,0,0,0,11.88.15,7.63,7.63,0,0,0,3-.82,8,8,0,0,0,2-2.14,108.71,108.71,0,0,0,5.8-10.33c13.63-26.55,41.33-89.74,46.38-99.68,27.84-54.78,98.91-193.42,104.68-207.27,3.22-7.73,4.21-16.12,4.76-24.56.54-8.12.68-16.27,2.25-23.88,4.77-23.14,17-54.08,27.45-73.78,4.38-8.21,8.41-14.45,11.5-17.18.8-.71,2.8-1.31,5.49-1.93a108.5,108.5,0,0,1,29.17-2c5.62.43,10.73,1.4,14.22,3.24,1.88,1,3.26,2.2,3.71,3.82,1,3.47-.83,6.8-4,10.06-5.56,5.64-15.41,10.81-26,15.1-3.08,1.24-5.62,4.49-7.48,8.79-3.87,8.89-5.2,22.31-5.58,27.07-.24,3,1.6,7.29,4.08,12.91,5.23,11.83,13,30.43,3.61,57.27a2.08,2.08,0,0,0,3.93,1.37c9.86-28.27,1.77-47.86-3.74-60.32a83.76,83.76,0,0,1-3.2-7.79,8.66,8.66,0,0,1-.53-3.11c.31-3.9,1.25-13.87,3.85-22a30.1,30.1,0,0,1,3-6.88,8.28,8.28,0,0,1,3.59-3.46c9.33-3.77,18.05-8.25,24.11-13.08-1,2.17-1.93,4.17-2.76,5.91a3.1,3.1,0,0,0,.17,2.38c.8,1.24,4.25,5.41,11.53,10.65l0,0c-3.47,5-22.18,30.78-27.33,50.27-2.44,9.2-1.74,17.08,3.83,21.41,7.2,5.6,14.17,4.64,20.7-.27.28,9.79,6.5,16.21,14.75,17.45a23.38,23.38,0,0,0,14.69-3.06c-6.74,9.55-13.77,18.49-20.32,27-11,14.16-20.61,27-25.57,39.19-12,29.32-75.57,318.87-114,395.46-1.49,3-5.27,5.56-10.71,8-8.89,4.07-22.09,7.55-37.91,10.53-62.19,11.72-164.73,15.46-209.26,13.72a2,2,0,0,0-1.83,1,3.91,3.91,0,0,0-.42,1.25c-.55,2.87-2.67,17.16-4.78,23.11a6.28,6.28,0,0,1-.82.16,20.83,20.83,0,0,1-3.07.07c-13.43-.45-48.38-7.86-83.42-15-35.38-7.19-70.86-14.07-84.76-13.45a16.25,16.25,0,0,0-5.45,1,4.24,4.24,0,0,0-2.43,2.37c-14.41,39.5-17.3,115.26-21.24,162.31a2.08,2.08,0,1,0,4.14.35c3.92-46.67,6.69-121.79,21-161.08a6.26,6.26,0,0,1,1.11-.41,35.36,35.36,0,0,1,9-.27c16.43,1,47.16,7,77.83,13.27,35.32,7.18,70.56,14.61,84.1,15.06a15.66,15.66,0,0,0,5.85-.6,3.28,3.28,0,0,0,1.89-1.82c2-5.22,4.11-18.3,4.93-23.05,45.64,1.58,146.78-2.24,208.42-13.86,16.23-3,29.75-6.66,38.86-10.84,6.56-3,10.92-6.4,12.71-10,38.44-76.64,102.15-366.41,114.11-395.74,4.84-11.87,14.3-24.4,25-38.22,10.27-13.27,21.67-27.68,31.38-43.75l0-.06,0-.06a177.94,177.94,0,0,0,14.84-30.32C2148.77,295.88,2143.68,288.52,2134.94,282.52ZM634.53,509.69c-.69,4.13-2,7.56-4.25,10s-5.34,3.9-9.61,4.36c-4.56.49-8.56-1-12.89-5.42-3.16-3.26-6.46-8-10.16-14.62l0,0c-.52-5.41-.93-10.54-1.19-15.29-.73-13.28-.41-23.52,1.6-28.74a8.79,8.79,0,0,1,1.07-.75,37.34,37.34,0,0,1,6.88-2.54,238.1,238.1,0,0,1,24-5.13,2.36,2.36,0,0,0-.09.88C632.51,475.22,636.78,496.08,634.53,509.69ZM660,518.44c-11.48,2.82-17.25-5.65-20.49-17a2.17,2.17,0,0,0-.19-.44c0-13.27-3.13-30.5-5.23-49a2.21,2.21,0,0,0-.41-1c11.44-1.86,23.86-3.45,34.66-4.51.9,13.91,4.55,35.66,3,52-.5,5.25-1.54,9.93-3.47,13.52A12,12,0,0,1,660,518.44ZM702.48,455a2.94,2.94,0,0,1,.47,1.74,23.36,23.36,0,0,1,0,4.57c-.71,8.76-4.22,21.67-4.89,24.84a6.65,6.65,0,0,1-2.54,3.66,46.4,46.4,0,0,1-6,3.88c-4.69,2.73-10.27,6.06-15.12,11.82a57.19,57.19,0,0,0,1-6.65c1.61-16.62-2.06-38.75-3-52.81a170.72,170.72,0,0,1,19.94-.88C695.58,448.44,699.11,451.7,702.48,455ZM1276.1,632.63c-19.11.77-37.68-5.27-50.89-19.87-16.12-17.81-20.12-35.08-20.71-51.46a2.08,2.08,0,0,0,.13-.56c2-26.36,3-52.86-8.43-76.36a2.55,2.55,0,0,0-1.4-1.22,31.42,31.42,0,0,0-5.39-.91c-11.53-1.4-39.27-4.82-38.63-32.57.26-11.17,5.3-20.26,13.37-25.63s19.32-7,31.68-3.31c6.51,1.95,11,6.39,15,9.34,3,2.14,5.76,3.55,8.78,3.45a11.74,11.74,0,0,0,6.75-2.72c2.9-2.23,4.35-5.59,5-9.4.87-5,.38-10.7,1-15,1.26-9.3,2.39-24.46,6.52-37.12,2.61-8,6.38-15,12.38-18.6,4.45-2.64,9.08-1.94,13.57-1.15,5.37.94,10.58,2,15.27-.14,5.23-2.39,8.24-7.26,11.41-12.17,2.71-4.2,5.56-8.43,10.9-10.28,6.57-2.28,11.19.58,15.78,2.92,3.71,1.89,7.4,3.5,11.7,3.11,3.23-.3,6.79-2.64,10.31-4.44,2.56-1.31,5.08-2.44,7.38-.79,1.16.84,2.28,2.81,3.46,5.47,3.17,7.07,6.16,18.71,8,29.82,5.54,33.82,6.28,61.33,6.26,83.78,0,17.65-3.53,38.14-10.4,51.38-7,13.47-15.33,22.5-26.8,27.19s-26.32,5.07-45.89,1.35c-5.94-1.14-16.32-5.13-24.87-9.67-5.52-2.93-10.3-6-12.45-8.82a2,2,0,0,0-3.2,2.49c2.39,3.08,7.62,6.65,13.75,9.91,8.95,4.74,19.8,8.88,26,10.06,17.32,3.29,31,3.44,42.17.43-.38,10-.38,16.77-.77,22.89-.91,14.28,1.76,23.3,6.84,28.77,4.6,5,11.27,7.13,19.49,7.49C1333.6,615.64,1304.24,631.49,1276.1,632.63Zm792.44-300.28a9.5,9.5,0,0,1-3.46-6.61,28.22,28.22,0,0,1,1.09-10.46c5-19,23.35-44.06,26.73-49a.16.16,0,0,0,0-.07l.87.57c5.4,3.45,14.72,6.95,23.82,11.08-6.91,11.88-16.34,35.11-27.44,48.29C2083.51,334.1,2076.29,338.39,2068.54,332.35Zm72.94-28.72A174.43,174.43,0,0,1,2127,333.24c-7.63,12.05-17.31,16.59-24.94,15.45-7.19-1.07-12.17-7.38-11.08-16.6a1.93,1.93,0,0,0,0-.54c.82-.84,1.62-1.73,2.42-2.68,11.34-13.46,21-37.26,28-49.18v0a85.32,85.32,0,0,1,11.18,6.29C2139.55,290.73,2144.18,296.31,2141.48,303.63Z"></path> <path class="cls-2" d="M1554,1513.41a2.08,2.08,0,0,0-4.14.41c5.79,59.51,20.26,241.69,21,319.1.13,13.41-.15,23.65-1,29.5-.29,2.07-.56,3.51-1,4.17a4.28,4.28,0,0,1-1.42,1,27.29,27.29,0,0,1-3.71,1.58c-7.51,2.67-21.09,5.42-37.71,8-39.08,6.07-94.84,11.15-128.61,11.58a183,183,0,0,1-20.82-.64c-3.06-.34-5.28-.77-6.48-1.41a2.63,2.63,0,0,1-.62-.74,23.12,23.12,0,0,1-1.45-2.5c-2.69-5.29-6.34-15.34-10.68-28.76-25.06-77.5-72.39-266.7-85.87-311-1.21-4-2.16-6.82-2.8-8.34a8.26,8.26,0,0,0-.66-1.31,2.31,2.31,0,0,0,0-.46c-.2-17.06-.32-35-.43-53.49a1.86,1.86,0,0,0,.79-.21c30.45-14.87,41.48-38.58,45.23-68,3.66-28.73.27-63,1.79-99.57a2.08,2.08,0,1,0-4.16-.17c-1.51,36.46,1.89,70.58-1.76,99.21-3.52,27.64-13.72,50.07-41.92,64.25-.35-59.39-.69-124.08-3.35-182.89a2.08,2.08,0,0,0-4.16.18c3.56,78.63,3,167.78,3.81,240.71a1.76,1.76,0,0,0,.06.46.57.57,0,0,0-.08.13,45,45,0,0,0-2.27,6.66c-10.94,37.54-54.47,225.79-74.95,306.16-4.78,18.76-8.25,31.58-9.75,35-46.59,6.54-152.94,10.16-193.81,2.92-5.88-1-10.35-2.27-13-3.81a5.93,5.93,0,0,1-1.34-1,1.16,1.16,0,0,1-.45-.81c.13-95-1.27-369.19-.74-398.64a2.08,2.08,0,1,0-4.16-.07c-.53,29.46.87,303.69.73,398.7,0,1.93,1.19,3.85,3.85,5.42,2.91,1.7,7.83,3.16,14.35,4.32,41.43,7.34,149.67,3.63,196.07-3a2.35,2.35,0,0,0,1.34-.71,8,8,0,0,0,1.22-2.31c1.67-4.4,5.11-17,9.7-35,20.47-80.33,64-268.5,74.9-306,.15-.52.31-1,.46-1.52.45,1.3,1,2.79,1.43,4.38,13.49,44.35,60.83,233.59,85.89,311.12,4.43,13.7,8.18,24,10.93,29.35,1.45,2.85,2.83,4.49,3.8,5a18,18,0,0,0,5.52,1.57c5.22.81,13.51,1.12,23.81,1,33.93-.43,89.94-5.53,129.2-11.63,16.95-2.64,30.8-5.48,38.47-8.2,3.83-1.36,6.25-2.86,7.14-4.15.67-1,1.32-3,1.74-6,.84-6,1.15-16.42,1-30.12C1574.28,1755.38,1559.8,1573,1554,1513.41Z"></path> <path class="cls-2" d="M1184.41,432.44c-12.58,4.2-18.21,18.88-15.49,28.94a2,2,0,1,0,3.9-1.05c-2.25-8.36,2.42-20.56,12.87-24.05a2,2,0,0,0-1.28-3.84Z"></path> <path class="cls-2" d="M1157.71,425.68c.58,1.14,11.36-10,28.09-9,18.54,1.07,35.52,24.54,41.46,8.12,7.82-21.6-1.91-54.72,18.8-72.44,10.76-9.23,23.24-.45,34-6.62,11.16-6.38,11-21.32,26.62-21.7,7.91-.19,14.55,6.3,22.16,6.53s10.78-6.26,18.33-5.74c3.83.26,5.94,9.28,7.27,8.75,12-4.83,40.39-34.52,41.11-42.6,1.05-11.6-10.75-16.21-12.51-23.13-2.14-8.41-1.47-14.9-7.21-22.56-7.7-10.26-18.26-6.91-28.64-7.92-8.89-.88-6.22-10.45-18.36-15.64-11.09-4.74-15.84.77-22.84-1.3-11-3.25-8.23-11.5-23.92-11.75-12.29-.19-14.49,10.81-23.83,12.71s-10-9.48-27.39-2.09c-11.48,4.86-9.42,12.56-19,18.78-7.58,4.94-11.51-4.39-26.48,5.74-10,6.8-9.19,14.77-16.2,23.36-6.3,7.71-18.3,6.46-25.62,13.24-9.81,9.09-2.35,22.79-5.78,33.86-2.54,8.23-23,16.85-16.08,35.79,8.57,23.45,29.37,62.66,35.94,75.62Z"></path> <path class="cls-1" d="M1341.34,473c-2.25-11.73-17.43-7.31-26.6-12.69-12.75-7.47-19.4-19.45-28.61-13.94-12.55,7.51,2.08,34.79,20.3,40.6,24.63,7.85,36.33-6.56,34.91-14Z"></path> <path class="cls-2" d="M1343.38,472.57c-1.31-6.86-6.24-9.18-12.34-10.38-5-1-10.86-1.14-15.25-3.72-7.65-4.49-13.1-10.59-18.23-13.57-4.12-2.39-8.07-3-12.5-.36-5.81,3.47-7,10.53-4.43,18.28,3.43,10.59,13.63,22.4,25.16,26.08,18.51,5.9,30.15-.23,35-7,2.32-3.24,3.12-6.7,2.61-9.36Zm-4.09.78c.47,2.43-1,5.71-3.94,8.44-5.06,4.66-14.51,7.53-28.29,3.14-10.32-3.29-19.4-13.91-22.47-23.39-1.83-5.64-1.62-10.9,2.61-13.43,3.8-2.27,7-.69,10.68,2,4.46,3.28,9.36,8.18,15.81,12,4.78,2.8,11.1,3.13,16.54,4.21,4.35.86,8.13,2.19,9.06,7.08Z"></path> <path class="cls-2" d="M1334.53,400.32c1.16,8.68,2.5,16.49,3,20.38a79.74,79.74,0,0,1,.8,12.11c-.12,2.68-.54,4.66-1.66,6s-2.71,1.87-5.06,2.11a50.25,50.25,0,0,1-11.61-.71,2.08,2.08,0,0,0-.6,4.12c6.49.94,11.2,1.14,14.55.44a10,10,0,0,0,5.93-3.31,12.2,12.2,0,0,0,2.45-6.48c.43-3.59.09-8.44-.67-14.79-.47-3.9-1.81-11.72-3-20.44a2.08,2.08,0,0,0-4.13.56Z"></path> <path class="cls-2" d="M1315.33,369.81c3.42,15.2-45.45,27.38-48.68,10.78-2.72-14,45.44-25.16,48.68-10.78Z"></path> <path class="cls-2" d="M1340.55,370.06c1.45-12.9,39.83-5.34,34.14,11.93-3.55,10.76-36,4.43-34.14-11.93Z"></path> <path class="cls-11" d="M1353.14,396.13a6.27,6.27,0,1,0,6.37,6.27,6.33,6.33,0,0,0-6.37-6.27Z"></path> <path class="cls-11" d="M1304,395a6.28,6.28,0,1,0,6.38,6.28A6.33,6.33,0,0,0,1304,395Z"></path> <polygon class="cls-4" points="1025.98 1295.28 816.7 1295.28 816.7 1464.6 1025.98 1464.6 1025.98 1295.28 1025.98 1295.28"></polygon> <path class="cls-2" d="M983.52,1379.5a4,4,0,0,0-.71-.26c-.86-.23-1.88-.37-2.9-.58a9.48,9.48,0,0,1-5.33-2.68,7.15,7.15,0,0,1-1.7-4.74c-.24-8.42-.31-18.65-.36-26.92,0-3.38-.71-5.68-2.1-7.22-2.18-2.42-5.83-3-10.15-3.38a2.09,2.09,0,0,1,.41-4.15c5.52.55,10,1.64,12.83,4.74,1.93,2.15,3.15,5.27,3.17,10,.05,8.23.12,18.42.36,26.82a3.44,3.44,0,0,0,.51,1.91,3.68,3.68,0,0,0,2.13,1.29c.85.25,1.76.39,2.6.55a12.21,12.21,0,0,1,3.19.93,3.81,3.81,0,0,1,2.3,3.43,4.1,4.1,0,0,1-1.28,3.18,13.29,13.29,0,0,1-3.63,2.29,23.62,23.62,0,0,0-3.52,1.9,4.41,4.41,0,0,0-2.16,4c.38,9.55.51,15.75.29,24.22-.26,10.07-8.48,13.86-20.06,13.94a2.08,2.08,0,0,1-2.09-2.07,2.06,2.06,0,0,1,2.06-2.09c8.89-.07,15.74-2.16,15.93-9.89.22-8.37.09-14.5-.29-24-.19-4.79,3-7.24,6.39-9,1.28-.65,2.58-1.19,3.54-1.81a3.56,3.56,0,0,0,.51-.38l.06-.06Z"></path> <path class="cls-2" d="M856.3,1379.44a3.73,3.73,0,0,0,.55.36c1,.6,2.44,1.1,3.83,1.73,3.67,1.64,7.09,4.06,7,8.82-.23,9.36-.25,15.42.13,23.71.2,4.32,2.73,6.81,6.6,8.13a32.94,32.94,0,0,0,10.76,1.33,2.08,2.08,0,1,1,.06,4.16c-12.31.15-21.11-3.52-21.57-13.43-.39-8.38-.37-14.53-.14-24a4.24,4.24,0,0,0-2.38-3.81,26.7,26.7,0,0,0-3.82-1.83,14.47,14.47,0,0,1-3.89-2.17,4,4,0,0,1-1.44-3.19,3.71,3.71,0,0,1,1.7-3.1,10.88,10.88,0,0,1,4-1.35,20.2,20.2,0,0,0,3.57-.87,2.94,2.94,0,0,0,2-2.93c.1-8.32,0-18.42-.12-26.58-.06-4.71,1.18-7.84,3.22-10,2.9-3.1,7.67-4.26,13.5-4.9a2.08,2.08,0,0,1,.46,4.14c-4.67.51-8.6,1.13-10.92,3.61-1.44,1.53-2.14,3.8-2.09,7.12.1,8.19.22,18.33.11,26.68-.07,5.1-3.58,6.7-7.29,7.51-1.09.23-2.19.39-3.11.63-.23.06-.52.18-.74.26Z"></path> <path d="M1026,1467.09H815a2.25,2.25,0,0,1-2.25-2.25V1294.78a2.25,2.25,0,0,1,2.25-2.25h211a2.25,2.25,0,0,1,2.25,2.25v170.06A2.25,2.25,0,0,1,1026,1467.09Zm-208.7-4.5H1023.7V1297H817.25Z"></path> </g> </g> </svg> 